<?xml version="1.0" encoding="utf-8"?>
<!-- Generator: Adobe Illustrator 25.0.0, SVG Export Plug-In . SVG Version: 6.00 Build 0)  -->
<svg version="1.1" id="レイヤー_2" xmlns="http://www.w3.org/2000/svg" xmlns:xlink="http://www.w3.org/1999/xlink" x="0px"
	 y="0px" viewBox="0 0 281.9 65" style="enable-background:new 0 0 281.9 65;" xml:space="preserve">
<style type="text/css">
	.st0{fill:url(#SVGID_1_);}
	.st1{fill:#009B42;}
	.st2{fill:#FFFFFF;}
	.st3{clip-path:url(#SVGID_3_);}
	.st4{fill:#00CAA2;}
	.st5{clip-path:url(#SVGID_5_);}
</style>
<g>
	<linearGradient id="SVGID_1_" gradientUnits="userSpaceOnUse" x1="0.3221" y1="6.1059" x2="208.3708" y2="6.1059">
		<stop  offset="0" style="stop-color:#009B42;stop-opacity:0"/>
		<stop  offset="0.15" style="stop-color:#009B42"/>
		<stop  offset="0.5" style="stop-color:#009B42"/>
		<stop  offset="0.85" style="stop-color:#009B42"/>
		<stop  offset="1" style="stop-color:#009B42;stop-opacity:0"/>
	</linearGradient>
	<rect x="0.3" class="st0" width="208" height="12.2"/>
	<g>
		<g>
			<g>
				<path class="st1" d="M56.1,61.6c0.5,0,0.6-0.1,0.6-0.4v-3.6c-0.1-0.2-0.3-0.2-0.6-0.2v-0.1h1.3l2.6,3.4v-2.7
					c0-0.3-0.2-0.5-0.6-0.5v-0.1h1.5v0.1c-0.4,0-0.6,0.2-0.6,0.5v4H60l-3-4v3.3c0,0.3,0.2,0.4,0.6,0.4v0.1h-1.5V61.6z"/>
				<path class="st1" d="M64.3,60.2c0,1-0.6,1.6-1.6,1.6c-1,0-1.6-0.6-1.6-1.7c0-1,0.6-1.6,1.6-1.6C63.7,58.6,64.3,59.2,64.3,60.2z
					 M62,60.2c0,1,0.2,1.5,0.7,1.5c0.5,0,0.7-0.4,0.7-1.4c0-1.1-0.2-1.5-0.7-1.5C62.2,58.7,62,59.1,62,60.2z"/>
				<path class="st1" d="M67.8,58.6c0.3,0,0.5,0.2,0.5,0.4c0,0.2-0.2,0.4-0.4,0.4c-0.2,0-0.4-0.1-0.4-0.4c0-0.1,0-0.1-0.1-0.1
					c-0.1,0-0.2,0.1-0.3,0.2c0.1,0.2,0.1,0.3,0.1,0.6c0,0.6-0.5,1-1.2,1c-0.2,0-0.4,0-0.6-0.1c-0.1,0.1-0.2,0.2-0.2,0.3
					c0,0.1,0,0.2,0.1,0.2c0.1,0,0.1,0,0.8,0.1c0.7,0.1,1,0.1,1.2,0.3c0.2,0.1,0.3,0.4,0.3,0.7c0,0.7-0.5,1.1-1.6,1.1
					c-0.9,0-1.4-0.3-1.4-0.8c0-0.3,0.2-0.5,0.6-0.6c-0.3-0.1-0.5-0.3-0.5-0.6c0-0.3,0.1-0.5,0.5-0.7c-0.3-0.2-0.5-0.5-0.5-0.8
					c0-0.3,0.1-0.6,0.4-0.8c0.2-0.2,0.5-0.3,0.9-0.3c0.5,0,0.8,0.1,1,0.4C67.3,58.7,67.5,58.6,67.8,58.6z M65.2,62.4
					c0,0.4,0.4,0.6,1,0.6c0.6,0,1-0.2,1-0.6c0-0.2-0.1-0.3-0.3-0.4c-0.2,0-0.3-0.1-0.7-0.1c-0.6-0.1-0.6-0.1-0.6-0.1
					C65.3,61.9,65.2,62.1,65.2,62.4z M65.6,59.6c0,0.6,0.1,0.8,0.5,0.8c0.3,0,0.5-0.3,0.5-0.9c0-0.6-0.1-0.8-0.5-0.8
					C65.7,58.7,65.6,59,65.6,59.6z"/>
				<path class="st1" d="M71.2,61.3c-0.3,0.4-0.7,0.5-1.2,0.5c-0.6,0-0.9-0.3-0.9-0.9v-1.8c0-0.3-0.1-0.4-0.6-0.4v-0.1
					c0.6,0,1.1,0,1.3-0.1v2.3c0,0.5,0.1,0.6,0.5,0.6c0.3,0,0.6-0.1,0.8-0.5v-1.8c0-0.3-0.1-0.4-0.5-0.4v-0.1h0c0.7,0,1,0,1.3-0.1
					v2.7c0,0.3,0.1,0.4,0.5,0.4v0.1c-0.6,0-1,0.1-1.3,0.1V61.3z"/>
				<path class="st1" d="M76.1,60.7c-0.3,0.8-0.8,1.1-1.5,1.1c-1,0-1.7-0.7-1.7-1.6c0-1,0.7-1.7,1.7-1.7c0.7,0,1.3,0.4,1.3,0.9
					c0,0.3-0.2,0.5-0.5,0.5c-0.3,0-0.5-0.2-0.5-0.5c0-0.1,0-0.2,0.2-0.3c0-0.1,0.1-0.1,0.1-0.1c0-0.1-0.2-0.2-0.4-0.2
					c-0.7,0-1.1,0.5-1.1,1.4c0,0.9,0.4,1.4,1,1.4c0.5,0,0.9-0.3,1.1-0.9L76.1,60.7z"/>
				<path class="st1" d="M76.4,61.6c0.4,0,0.5-0.1,0.5-0.4v-3.5c0-0.2-0.1-0.3-0.6-0.3v-0.2c0.6,0,1.1-0.1,1.3-0.2v2.1
					c0.4-0.4,0.7-0.6,1.2-0.6c0.6,0,0.9,0.3,0.9,0.9v1.8c0,0.3,0.1,0.4,0.5,0.4v0.2h-1.9v-0.2c0.4,0,0.6-0.1,0.6-0.4v-1.7
					c0-0.3-0.2-0.5-0.5-0.5c-0.3,0-0.5,0.1-0.8,0.5v1.7c0,0.3,0.1,0.4,0.5,0.4v0.2h-1.9V61.6z"/>
				<path class="st1" d="M80.7,61.6c0.5,0,0.6-0.1,0.6-0.4v-2c0-0.3-0.2-0.4-0.6-0.4v-0.2c0.7,0,1.1,0,1.4-0.1v2.6
					c0,0.3,0.1,0.4,0.6,0.4v0.2h-2V61.6z M82.1,57.6c0,0.3-0.2,0.5-0.5,0.5c-0.3,0-0.5-0.2-0.5-0.5c0-0.3,0.2-0.5,0.5-0.5
					C81.9,57.1,82.1,57.3,82.1,57.6z"/>
				<path class="st1" d="M88,60.5l1.3-3.3H91v0.2h0c-0.5,0-0.6,0.1-0.6,0.5v3.2c0,0.4,0.1,0.5,0.6,0.5v0.2h-2.1v-0.2
					c0.5,0,0.6-0.1,0.6-0.5v-3.6l-1.6,4.2h-0.1L86,57.5v3.5c0,0.4,0.2,0.5,0.7,0.5v0.2h-1.6v-0.2c0.5,0,0.6-0.1,0.6-0.5v-3.2
					c0-0.4-0.1-0.5-0.6-0.5v-0.2h1.5L88,60.5z"/>
				<path class="st1" d="M92.1,60.2c0,0.9,0.3,1.4,1,1.4c0.5,0,0.8-0.2,1.1-0.8l0.2,0.1c-0.3,0.7-0.8,1-1.5,1
					c-0.9,0-1.6-0.7-1.6-1.7c0-0.9,0.7-1.6,1.6-1.6c0.6,0,1,0.2,1.2,0.7c0.2,0.3,0.2,0.5,0.2,1H92.1z M93.6,60
					c0-0.9-0.2-1.3-0.7-1.3c-0.5,0-0.8,0.4-0.8,1.3H93.6z"/>
				<path class="st1" d="M97.1,61.4c-0.3,0.3-0.5,0.4-0.9,0.4c-0.8,0-1.3-0.6-1.3-1.7c0-1,0.5-1.6,1.4-1.6c0.4,0,0.6,0.1,0.9,0.3
					v-1.2c0-0.3-0.1-0.4-0.5-0.4v-0.2c0.6,0,1,0,1.3-0.1v4.1c0,0.3,0.1,0.4,0.5,0.4v0.2c-0.1,0-0.1,0-0.1,0l-0.3,0l-0.2,0
					c-0.1,0-0.1,0-0.5,0l-0.1,0V61.4z M97.1,59.6c0-0.5-0.2-0.8-0.6-0.8c-0.5,0-0.8,0.4-0.8,1.4c0,0.9,0.2,1.3,0.7,1.3
					c0.4,0,0.7-0.3,0.7-0.7V59.6z"/>
				<path class="st1" d="M98.7,61.6c0.5,0,0.6-0.1,0.6-0.4v-2c0-0.3-0.2-0.4-0.6-0.4v-0.2c0.7,0,1.1,0,1.4-0.1v2.6
					c0,0.3,0.1,0.4,0.6,0.4v0.2h-2V61.6z M100.1,57.6c0,0.3-0.2,0.5-0.5,0.5s-0.5-0.2-0.5-0.5c0-0.3,0.2-0.5,0.5-0.5
					C99.9,57.1,100.1,57.3,100.1,57.6z"/>
				<path class="st1" d="M104.3,60.7c-0.3,0.8-0.8,1.1-1.5,1.1c-1,0-1.7-0.7-1.7-1.6c0-1,0.7-1.7,1.7-1.7c0.7,0,1.3,0.4,1.3,0.9
					c0,0.3-0.2,0.5-0.5,0.5c-0.3,0-0.5-0.2-0.5-0.5c0-0.1,0-0.2,0.2-0.3c0-0.1,0.1-0.1,0.1-0.1c0-0.1-0.2-0.2-0.4-0.2
					c-0.7,0-1.1,0.5-1.1,1.4c0,0.9,0.4,1.4,1,1.4c0.5,0,0.9-0.3,1.1-0.9L104.3,60.7z"/>
				<path class="st1" d="M107.8,61c0,0.6-0.3,0.8-0.8,0.8c-0.3,0-0.4-0.1-0.5-0.3c-0.3,0.2-0.6,0.3-0.9,0.3c-0.6,0-0.9-0.3-0.9-0.8
					c0-0.4,0.2-0.7,0.6-0.9c0.3-0.1,0.6-0.2,1.2-0.3v-0.6c0-0.4-0.2-0.5-0.7-0.5c-0.2,0-0.4,0.1-0.4,0.2c0,0,0,0.1,0.1,0.1
					c0.1,0.1,0.2,0.2,0.2,0.3c0,0.2-0.2,0.4-0.4,0.4c-0.2,0-0.4-0.2-0.4-0.4c0-0.5,0.5-0.8,1.3-0.8c0.8,0,1.2,0.3,1.2,0.9v1.7
					c0,0.2,0,0.2,0.1,0.2c0.1,0,0.2-0.1,0.2-0.4H107.8z M106.5,60c-0.5,0-0.7,0.1-0.9,0.4c-0.1,0.1-0.2,0.3-0.2,0.6
					c0,0.3,0.2,0.6,0.5,0.6c0.2,0,0.4-0.1,0.6-0.2V60z"/>
				<path class="st1" d="M108,61.6c0.5,0,0.6-0.1,0.6-0.4v-3.4c0-0.3-0.1-0.4-0.6-0.4v-0.2c0.6,0,1.1-0.1,1.4-0.2v4.1
					c0,0.3,0.1,0.4,0.6,0.4v0.2h-2V61.6z"/>
				<path class="st1" d="M112.5,61.6c0.4,0,0.6-0.1,0.6-0.4v-3.4c0-0.3-0.2-0.4-0.6-0.4v-0.2h2.7c1.1,0,1.6,0.3,1.6,1.1
					c0,0.3-0.1,0.6-0.3,0.8c-0.2,0.2-0.5,0.3-1,0.4l1.1,1.8c0.2,0.3,0.3,0.3,0.7,0.3v0.2h-1.3l-1.4-2.3h-0.5v1.7
					c0,0.3,0.2,0.4,0.6,0.4v0.2h-2.1V61.6z M114.5,59.3c0.9,0,1.3-0.3,1.3-1c0-0.7-0.4-1-1.2-1c-0.5,0-0.6,0.1-0.6,0.5v1.4H114.5z"
					/>
				<path class="st1" d="M118.4,60.2c0,0.9,0.3,1.4,1,1.4c0.5,0,0.8-0.2,1.1-0.8l0.2,0.1c-0.3,0.7-0.8,1-1.5,1
					c-0.9,0-1.6-0.7-1.6-1.7c0-0.9,0.7-1.6,1.6-1.6c0.6,0,1,0.2,1.2,0.7c0.2,0.3,0.2,0.5,0.2,1H118.4z M119.8,60
					c0-0.9-0.2-1.3-0.7-1.3c-0.5,0-0.8,0.4-0.8,1.3H119.8z"/>
				<path class="st1" d="M121.1,60.6h0.2c0.3,0.7,0.7,1.1,1.3,1.1c0.4,0,0.7-0.2,0.7-0.5c0-0.2-0.1-0.3-0.3-0.4
					c-0.1-0.1-0.2-0.1-0.6-0.2c-1-0.3-1.2-0.5-1.2-1c0-0.6,0.5-1,1.2-1c0.4,0,0.7,0.1,1,0.3l0.2-0.3h0.1l0.1,1.2h-0.2
					c-0.2-0.7-0.6-1-1.1-1c-0.4,0-0.6,0.2-0.6,0.5c0,0.2,0.1,0.3,0.3,0.4c0.1,0.1,0.2,0.1,0.6,0.2c0.5,0.1,0.7,0.2,0.8,0.3
					c0.3,0.2,0.4,0.4,0.4,0.7c0,0.6-0.5,1-1.3,1c-0.4,0-0.7-0.1-1-0.3l-0.3,0.3h-0.1L121.1,60.6z"/>
				<path class="st1" d="M125,60.2c0,0.9,0.3,1.4,1,1.4c0.5,0,0.8-0.2,1.1-0.8l0.2,0.1c-0.3,0.7-0.8,1-1.5,1c-0.9,0-1.6-0.7-1.6-1.7
					c0-0.9,0.7-1.6,1.6-1.6c0.6,0,1,0.2,1.2,0.7c0.2,0.3,0.2,0.5,0.2,1H125z M126.5,60c0-0.9-0.2-1.3-0.7-1.3
					c-0.5,0-0.8,0.4-0.8,1.3H126.5z"/>
				<path class="st1" d="M130.9,61c0,0.6-0.3,0.8-0.8,0.8c-0.3,0-0.4-0.1-0.5-0.3c-0.3,0.2-0.6,0.3-0.9,0.3c-0.6,0-0.9-0.3-0.9-0.8
					c0-0.4,0.2-0.7,0.6-0.9c0.3-0.1,0.6-0.2,1.2-0.3v-0.6c0-0.4-0.2-0.5-0.7-0.5c-0.2,0-0.4,0.1-0.4,0.2c0,0,0,0.1,0.1,0.1
					c0.1,0.1,0.2,0.2,0.2,0.3c0,0.2-0.2,0.4-0.4,0.4c-0.2,0-0.4-0.2-0.4-0.4c0-0.5,0.5-0.8,1.3-0.8c0.8,0,1.2,0.3,1.2,0.9v1.7
					c0,0.2,0,0.2,0.1,0.2c0.1,0,0.2-0.1,0.2-0.4H130.9z M129.6,60c-0.5,0-0.7,0.1-0.9,0.4c-0.1,0.1-0.2,0.3-0.2,0.6
					c0,0.3,0.2,0.6,0.5,0.6c0.2,0,0.4-0.1,0.6-0.2V60z"/>
				<path class="st1" d="M131.2,61.6c0.4,0,0.6-0.1,0.6-0.4v-2c0-0.3-0.1-0.4-0.6-0.4v-0.2c0.6,0,1,0,1.3-0.1v0.7
					c0.3-0.4,0.6-0.6,0.9-0.6c0.3,0,0.6,0.2,0.6,0.5c0,0.3-0.2,0.5-0.5,0.5c-0.3,0-0.4-0.2-0.5-0.4c0-0.1,0-0.1-0.1-0.1
					c-0.2,0-0.5,0.5-0.5,0.8v1.4c0,0.3,0.1,0.4,0.5,0.4v0.1h-1.9V61.6z"/>
				<path class="st1" d="M137.5,60.7c-0.3,0.8-0.8,1.1-1.5,1.1c-1,0-1.7-0.7-1.7-1.6c0-1,0.7-1.7,1.7-1.7c0.7,0,1.3,0.4,1.3,0.9
					c0,0.3-0.2,0.5-0.5,0.5c-0.3,0-0.5-0.2-0.5-0.5c0-0.1,0-0.2,0.2-0.3c0-0.1,0.1-0.1,0.1-0.1c0-0.1-0.2-0.2-0.4-0.2
					c-0.7,0-1.1,0.5-1.1,1.4c0,0.9,0.4,1.4,1,1.4c0.5,0,0.9-0.3,1.1-0.9L137.5,60.7z"/>
				<path class="st1" d="M137.9,61.6c0.4,0,0.5-0.1,0.5-0.4v-3.5c0-0.2-0.1-0.3-0.6-0.3v-0.2c0.6,0,1.1-0.1,1.3-0.2v2.1
					c0.4-0.4,0.7-0.6,1.2-0.6c0.6,0,0.9,0.3,0.9,0.9v1.8c0,0.3,0.1,0.4,0.5,0.4v0.2H140v-0.2c0.4,0,0.6-0.1,0.6-0.4v-1.7
					c0-0.3-0.2-0.5-0.5-0.5c-0.3,0-0.5,0.1-0.8,0.5v1.7c0,0.3,0.1,0.4,0.5,0.4v0.2h-1.9V61.6z"/>
				<path class="st1" d="M144.8,61.6L144.8,61.6c0.6,0,0.8-0.1,0.8-0.5v-3.3c0-0.4-0.2-0.5-0.8-0.5v-0.1h2.4v0.1
					c-0.6,0-0.8,0.1-0.8,0.5v3.3c0,0.4,0.2,0.5,0.8,0.5v0.2h-2.4V61.6z"/>
				<path class="st1" d="M147.5,61.6c0.4,0,0.5-0.1,0.5-0.4v-2c0-0.2-0.1-0.3-0.5-0.3v-0.1c0.6,0,1.1,0,1.3-0.1v0.6
					c0.4-0.4,0.8-0.6,1.2-0.6c0.6,0,0.9,0.3,0.9,0.8v1.8c0,0.3,0.1,0.4,0.5,0.4v0.1h-1.9v-0.1c0.4,0,0.5-0.1,0.5-0.4v-1.7
					c0-0.3-0.2-0.4-0.5-0.4c-0.3,0-0.6,0.2-0.8,0.5v1.7c0,0.3,0.1,0.4,0.6,0.4v0.1h-1.9V61.6z"/>
				<path class="st1" d="M151.8,60.6h0.2c0.3,0.7,0.7,1.1,1.3,1.1c0.4,0,0.7-0.2,0.7-0.5c0-0.2-0.1-0.3-0.3-0.4
					c-0.1-0.1-0.2-0.1-0.6-0.2c-1-0.3-1.2-0.5-1.2-1c0-0.6,0.5-1,1.2-1c0.4,0,0.7,0.1,1,0.3l0.2-0.3h0.1l0.1,1.2h-0.2
					c-0.2-0.7-0.6-1-1.1-1c-0.4,0-0.6,0.2-0.6,0.5c0,0.2,0.1,0.3,0.3,0.4c0.1,0.1,0.2,0.1,0.6,0.2c0.5,0.1,0.7,0.2,0.8,0.3
					c0.3,0.2,0.4,0.4,0.4,0.7c0,0.6-0.5,1-1.3,1c-0.4,0-0.7-0.1-1-0.3l-0.3,0.3h-0.1L151.8,60.6z"/>
				<path class="st1" d="M154.9,58.6c0.6-0.1,1-0.5,1-1.3h0.3v1.3h0.9v0.2h-0.9v2.1c0,0.4,0.1,0.5,0.3,0.5c0.3,0,0.5-0.3,0.6-0.9
					h0.2c0,0.4-0.1,0.7-0.2,0.9c-0.2,0.3-0.5,0.4-0.9,0.4c-0.5,0-0.8-0.3-0.8-0.8v-2.2h-0.6V58.6z"/>
				<path class="st1" d="M157.7,61.6c0.5,0,0.6-0.1,0.6-0.4v-2c0-0.3-0.2-0.4-0.6-0.4v-0.2c0.7,0,1.1,0,1.4-0.1v2.6
					c0,0.3,0.1,0.4,0.6,0.4v0.2h-2V61.6z M159.1,57.6c0,0.3-0.2,0.5-0.5,0.5c-0.3,0-0.5-0.2-0.5-0.5c0-0.3,0.2-0.5,0.5-0.5
					C158.9,57.1,159.1,57.3,159.1,57.6z"/>
				<path class="st1" d="M160.1,58.6c0.6-0.1,1-0.5,1-1.3h0.3v1.3h0.9v0.2h-0.9v2.1c0,0.4,0.1,0.5,0.3,0.5c0.3,0,0.5-0.3,0.6-0.9
					h0.2c0,0.4-0.1,0.7-0.2,0.9c-0.2,0.3-0.5,0.4-0.9,0.4c-0.5,0-0.8-0.3-0.8-0.8v-2.2h-0.6V58.6z"/>
				<path class="st1" d="M165.4,61.3c-0.3,0.4-0.7,0.5-1.2,0.5c-0.6,0-0.9-0.3-0.9-0.9v-1.8c0-0.3-0.1-0.4-0.6-0.4v-0.1
					c0.6,0,1.1,0,1.3-0.1v2.3c0,0.5,0.1,0.6,0.5,0.6c0.3,0,0.6-0.1,0.8-0.5v-1.8c0-0.3-0.1-0.4-0.5-0.4v-0.1h0c0.7,0,1,0,1.3-0.1
					v2.7c0,0.3,0.1,0.4,0.5,0.4v0.1c-0.6,0-1,0.1-1.3,0.1V61.3z"/>
				<path class="st1" d="M167,58.6c0.6-0.1,1-0.5,1-1.3h0.3v1.3h0.9v0.2h-0.9v2.1c0,0.4,0.1,0.5,0.3,0.5c0.3,0,0.5-0.3,0.6-0.9h0.2
					c0,0.4-0.1,0.7-0.2,0.9c-0.2,0.3-0.5,0.4-0.9,0.4c-0.5,0-0.8-0.3-0.8-0.8v-2.2H167V58.6z"/>
				<path class="st1" d="M170.6,60.2c0,0.9,0.3,1.4,1,1.4c0.5,0,0.8-0.2,1.1-0.8l0.2,0.1c-0.3,0.7-0.8,1-1.5,1
					c-0.9,0-1.6-0.7-1.6-1.7c0-0.9,0.7-1.6,1.6-1.6c0.6,0,1,0.2,1.2,0.7c0.2,0.3,0.2,0.5,0.2,1H170.6z M172,60
					c0-0.9-0.2-1.3-0.7-1.3c-0.5,0-0.8,0.4-0.8,1.3H172z"/>
				<path class="st1" d="M175.8,59.9h0.2c0.1,0.5,0.2,0.7,0.4,1c0.3,0.5,0.7,0.7,1.3,0.7c0.6,0,1-0.3,1-0.8c0-0.2-0.1-0.3-0.2-0.5
					c-0.1-0.2-0.3-0.3-0.8-0.4c-1.4-0.4-1.9-0.9-1.9-1.6c0-0.8,0.6-1.3,1.5-1.3c0.5,0,0.8,0.1,1.2,0.4l0.3-0.4h0.2l0.1,1.7h-0.2
					c-0.1-0.6-0.2-0.7-0.4-1c-0.3-0.4-0.7-0.6-1.1-0.6c-0.5,0-0.9,0.3-0.9,0.8c0,0.3,0.1,0.4,0.5,0.6c0.2,0.1,0.4,0.2,0.9,0.3
					c0.6,0.2,0.9,0.3,1.1,0.6c0.2,0.2,0.3,0.5,0.3,0.9c0,0.8-0.6,1.4-1.5,1.4c-0.5,0-1-0.1-1.4-0.5l-0.3,0.4h-0.2L175.8,59.9z"/>
				<path class="st1" d="M179.6,61.6c0.5,0,0.6-0.1,0.6-0.4v-2c0-0.3-0.2-0.4-0.6-0.4v-0.2c0.7,0,1.1,0,1.4-0.1v2.6
					c0,0.3,0.1,0.4,0.6,0.4v0.2h-2V61.6z M181,57.6c0,0.3-0.2,0.5-0.5,0.5c-0.3,0-0.5-0.2-0.5-0.5c0-0.3,0.2-0.5,0.5-0.5
					C180.8,57.1,181,57.3,181,57.6z"/>
				<path class="st1" d="M182,61.6c0.4,0,0.5-0.1,0.5-0.4v-2c0-0.2-0.1-0.3-0.5-0.3v-0.1c0.6,0,1.1,0,1.3-0.1v0.6
					c0.4-0.4,0.8-0.6,1.2-0.6c0.6,0,0.9,0.3,0.9,0.8v1.8c0,0.3,0.1,0.4,0.5,0.4v0.1h-1.9v-0.1c0.4,0,0.5-0.1,0.5-0.4v-1.7
					c0-0.3-0.2-0.4-0.5-0.4c-0.3,0-0.6,0.2-0.8,0.5v1.7c0,0.3,0.1,0.4,0.6,0.4v0.1H182V61.6z"/>
				<path class="st1" d="M189.5,60.7c-0.3,0.8-0.8,1.1-1.5,1.1c-1,0-1.7-0.7-1.7-1.6c0-1,0.7-1.7,1.7-1.7c0.7,0,1.3,0.4,1.3,0.9
					c0,0.3-0.2,0.5-0.5,0.5c-0.3,0-0.5-0.2-0.5-0.5c0-0.1,0-0.2,0.2-0.3c0-0.1,0.1-0.1,0.1-0.1c0-0.1-0.2-0.2-0.4-0.2
					c-0.7,0-1.1,0.5-1.1,1.4c0,0.9,0.4,1.4,1,1.4c0.5,0,0.9-0.3,1.1-0.9L189.5,60.7z"/>
				<path class="st1" d="M190.6,60.2c0,0.9,0.3,1.4,1,1.4c0.5,0,0.8-0.2,1.1-0.8l0.2,0.1c-0.3,0.7-0.8,1-1.5,1
					c-0.9,0-1.6-0.7-1.6-1.7c0-0.9,0.7-1.6,1.6-1.6c0.6,0,1,0.2,1.2,0.7c0.2,0.3,0.2,0.5,0.2,1H190.6z M192.1,60
					c0-0.9-0.2-1.3-0.7-1.3c-0.5,0-0.8,0.4-0.8,1.3H192.1z"/>
				<path class="st1" d="M194.9,61.6c0.6,0,0.8-0.1,0.8-0.5v-2.8c0-0.4-0.2-0.5-0.8-0.5v-0.2c0.6,0,1.1-0.1,1.5-0.4h0.2v4
					c0,0.4,0.2,0.5,0.8,0.5v0.2h-2.4V61.6z"/>
				<path class="st1" d="M199.9,59.7c-0.3,0.3-0.6,0.4-0.9,0.4c-0.7,0-1.2-0.6-1.2-1.4c0-0.9,0.6-1.5,1.5-1.5c1,0,1.6,0.8,1.6,2.2
					c0,0.7-0.1,1.3-0.5,1.7c-0.4,0.5-0.9,0.8-1.5,0.8c-0.6,0-1-0.3-1-0.7c0-0.3,0.2-0.5,0.4-0.5c0.2,0,0.4,0.2,0.4,0.4
					c0,0.1,0,0.2-0.2,0.3c0,0-0.1,0.1-0.1,0.1c0,0.1,0.1,0.1,0.3,0.1c0.7,0,1-0.6,1-1.7L199.9,59.7z M198.6,58.6
					c0,0.8,0.2,1.1,0.6,1.1c0.5,0,0.6-0.3,0.6-1c0-1-0.2-1.4-0.6-1.4C198.8,57.3,198.6,57.7,198.6,58.6z"/>
				<path class="st1" d="M204.3,60.6c0,0.8-0.6,1.3-1.5,1.3c-0.9,0-1.5-0.5-1.5-1.2c0-0.5,0.3-0.8,0.9-1.1c-0.5-0.3-0.8-0.7-0.8-1.1
					c0-0.7,0.6-1.2,1.4-1.2c0.8,0,1.3,0.4,1.3,1.1c0,0.5-0.2,0.8-0.8,1C204,59.7,204.3,60,204.3,60.6z M201.8,60.6
					c0,0.7,0.4,1.1,1,1.1c0.5,0,0.9-0.3,0.9-0.8c0-0.3-0.2-0.5-0.6-0.8c-0.1-0.1-0.8-0.5-0.8-0.5C201.9,59.9,201.8,60.1,201.8,60.6z
					 M203.7,58.3c0-0.6-0.4-0.9-0.9-0.9c-0.4,0-0.8,0.3-0.8,0.7c0,0.3,0.2,0.5,0.9,1c0.1,0,0.1,0,0.3,0.2
					C203.5,58.9,203.7,58.7,203.7,58.3z"/>
				<path class="st1" d="M207.6,59.9c0.1,0.2,0.2,0.4,0.2,0.7c0,0.8-0.6,1.3-1.6,1.3c-0.8,0-1.5-0.4-1.5-1c0-0.3,0.2-0.5,0.5-0.5
					c0.3,0,0.5,0.2,0.5,0.5c0,0.2-0.1,0.3-0.4,0.5c0,0,0,0,0,0.1c0,0.1,0.4,0.3,0.8,0.3c0.6,0,1-0.4,1-1.1c0-0.6-0.3-1.1-0.8-1.1
					c-0.1,0-0.1,0-0.3,0c-0.1,0-0.1,0-0.1,0c-0.1,0-0.2-0.1-0.2-0.1c0-0.1,0.1-0.2,0.2-0.2c0,0,0.1,0,0.1,0c0.1,0,0.2,0,0.3,0
					c0.4,0,0.7-0.3,0.7-0.9c0-0.6-0.3-1-0.8-1c-0.3,0-0.6,0.2-0.6,0.3c0,0,0,0,0.1,0.1c0.2,0.1,0.3,0.2,0.3,0.4
					c0,0.3-0.2,0.4-0.4,0.4c-0.3,0-0.4-0.2-0.4-0.5c0-0.6,0.6-1,1.4-1c0.8,0,1.4,0.5,1.4,1.2c0,0.5-0.3,0.9-0.8,1
					c-0.1,0-0.1,0-0.2,0.1C207.2,59.5,207.4,59.6,207.6,59.9z"/>
			</g>
			<g>
				<g>
					<path class="st1" d="M55.9,50.1c1.5-0.2,2-0.2,4.6-0.6v-3.1h-1.2c-0.9,0-1.4,0-2.6,0.1l-0.4-0.7l1.7,0.1c0.5,0,1,0,1.2,0h1.2
						v-2.7H59v0.8c0,0.2-0.1,0.3-0.3,0.4c-0.3,0.1-1.1,0.3-1.4,0.3c-0.3,0-0.5-0.2-0.5-0.4v-9.8l2.3,1h4.7l0.9-1.4l2,1.9
						c0.2,0.2,0.3,0.3,0.3,0.5c0,0.2-0.2,0.4-0.5,0.6L66.2,37v6.3c0,0.2-0.1,0.4-0.4,0.5c-0.2,0.1-1.1,0.2-1.3,0.2
						c-0.3,0-0.4-0.2-0.4-0.4v-0.6h-1.4v2.7h1.7l1.3-1.7l1.7,1.6c0.2,0.2,0.3,0.3,0.3,0.5c0,0.2-0.2,0.3-0.4,0.3h-4.5v2.7
						c0.7-0.1,1.7-0.2,4.7-0.8c0.1,0,0.2,0,0.3,0c0.1,0,0.2,0.1,0.2,0.2c0,0.1-0.1,0.2-1.1,0.6c-2.5,1.1-5.5,2.2-7.6,2.8l-0.3,0.5
						c-0.2,0.4-0.4,0.6-0.6,0.6c-0.2,0-0.4-0.2-0.7-0.5L55.9,50.1z M59,39h1.5v-3H59V39z M59,42.5h1.5v-2.9H59V42.5z M64.1,39v-3
						h-1.4v3H64.1z M62.7,42.5h1.4v-2.9h-1.4V42.5z M71.8,51.3c0,0.7-0.3,1.1-1.2,1.5c-0.5,0.2-1.2,0.4-1.5,0.4
						c-0.3,0-0.4-0.1-0.4-0.9c0-0.4-0.1-0.4-0.2-0.5c-0.2-0.1-0.6-0.3-1.8-0.7c-1-0.3-1-0.4-1-0.5c0-0.1,0-0.1,0.5-0.1l1.3,0
						c1.7,0,1.8,0,1.9-0.1c0.1-0.1,0.1-0.3,0.1-0.7v-7.2c-1.1,0-1.3,0-2.5,0.1l-0.3-0.7c1,0,1.7,0,3,0.1h4.1l1.1-1.3l1.9,2.4
						c0.2,0.2,0.3,0.4,0.3,0.6c0,0.2-0.1,0.3-0.7,0.4l-1,0.1c-0.8,0.6-0.9,0.7-1.3,0.9c-0.5,0.4-0.9,0.6-1,0.7
						c-0.2,0.1-0.4,0.2-0.6,0.4c-0.2,0.1-0.3,0.2-0.3,0.2C72,46.1,72,46.1,72,46c0,0,0-0.1,0.1-0.2c0.9-1.7,1.5-2.9,1.7-3.3h-1.9
						V51.3z M69.9,35.3h2.9l1-1.4l2,2.1c0.2,0.2,0.3,0.4,0.3,0.5c0,0.3-0.2,0.5-0.6,0.5l-0.9,0.1c-0.7,0.5-2.4,1.5-2.9,1.8
						c0.4,0.5,0.6,0.9,0.6,1.4c0,0.8-0.5,1.3-1.2,1.3c-0.6,0-0.8-0.2-1.4-1.4c-0.6-1.4-0.9-1.8-2-2.4c-0.2-0.1-0.3-0.2-0.3-0.3
						c0-0.1,0.1-0.1,0.2-0.1c1.1,0,2.6,0.4,3.4,0.9c0.7-1,1.4-2,1.7-2.5h-2.8c-0.6,0-1.1,0-2.6,0.1l-0.3-0.7L69.9,35.3z"/>
					<path class="st1" d="M102.8,52c0,0.2-0.1,0.4-0.2,0.5c-0.3,0.3-1.1,0.6-1.8,0.6c-0.4,0-0.5-0.1-0.5-0.5V34.1l3,1.3h11.8
						l1.6-2.1l2.1,1.9c0.1,0.1,0.2,0.2,0.2,0.4c0,0.2-0.1,0.4-0.4,0.4h-15.8v14.8h12.8l1.8-2.1l2.1,2c0.1,0.1,0.2,0.2,0.2,0.4
						c0,0.2-0.2,0.4-0.4,0.4h-16.5V52z M106.1,43.6c-0.8,0-1.4,0-2.7,0.1l-0.2-0.7c1.7,0.1,2.3,0.1,2.9,0.1h2.4
						c0.1-0.8,0.1-2,0.1-2.8v-0.4h-1.6c-1,1.3-2.7,2.9-3.1,2.9c-0.1,0-0.2-0.1-0.2-0.2c0,0,0-0.1,0.1-0.2c1-1.7,1.6-3.4,2-6.1
						l2.7,1.1c0.2,0.1,0.3,0.2,0.3,0.4c0,0.2-0.1,0.3-0.4,0.4l-0.4,0.1c-0.3,0.4-0.3,0.5-0.7,1h5.7l1.3-1.8l1.9,1.7
						c0.2,0.1,0.2,0.3,0.2,0.4c0,0.2-0.1,0.3-0.4,0.3h-5.2v0.6l0,1.2l0,1.1l0,0.4h3.9l1.5-2l2,1.9c0.2,0.2,0.2,0.3,0.2,0.4
						c0,0.2-0.1,0.3-0.4,0.3h-7.3c-0.1,0.6-0.1,0.7-0.2,1.1c1.9,0.3,3.3,0.8,4.1,1.5c0.8,0.6,1.2,1.4,1.2,2.1c0,0.7-0.5,1.3-1.2,1.3
						c-0.7,0-1-0.4-1.6-1.6c-0.5-1.2-1.4-2.2-2.7-2.9c-0.5,1.7-1.6,3-3.5,4c-1,0.5-2.9,1.2-3.3,1.2c-0.1,0-0.2-0.1-0.2-0.2
						c0-0.1,0.1-0.2,0.3-0.3c2.9-1.3,4.4-3.5,4.6-6.3H106.1z"/>
					<path class="st1" d="M123.2,46.3c0.9,0,1.8,0,1.9,0h4.4v-3l2.4,0.6c0.6-0.6,0.9-0.9,1.3-1.5h-5.3c-1.3,0-2.2,0-3.5,0.1
						l-0.3-0.8c2,0.1,2.6,0.1,3.8,0.1h5.7l1-1.3l1.9,1.6c0.8-1.8,0.9-1.8,1.2-2.9H124c0,0.2,0,0.5,0,0.7c0,1.6-0.7,2.7-1.9,2.7
						c-0.7,0-1.2-0.4-1.2-1.1c0-0.5,0.2-0.7,0.7-1.2c1.2-0.9,1.5-1.5,1.5-2.8c0-0.2,0.1-0.2,0.2-0.2c0.2,0,0.4,0.5,0.6,1.5h9.4
						c0.9-2.1,0.9-2.2,2.2-5.8l2.6,1.6c0.2,0.1,0.3,0.3,0.3,0.4c0,0.2-0.1,0.4-0.4,0.4l-0.7,0.3c-1.5,1.7-2,2.2-3,3.1h3.1l1-1.3
						l2.3,2.4c0.1,0.2,0.2,0.3,0.2,0.5c0,0.3-0.2,0.4-0.6,0.4l-0.9,0c-0.3,0.2-0.3,0.2-1.4,0.9c-0.3,0.2-0.6,0.4-0.9,0.7
						c0,0-0.3,0.2-0.4,0.3c0,0.1,0,0.2,0,0.2c0,0.2-0.1,0.3-0.4,0.3l-1.3,0.2c-1.2,0.6-1.9,0.9-3.1,1.4v1.5h4.7l1.5-2.1l2.2,1.9
						c0.2,0.2,0.3,0.3,0.3,0.4c0,0.2-0.2,0.4-0.5,0.4h-8.2V51c0,0.9-0.2,1.2-0.8,1.5c-0.6,0.4-1.4,0.6-1.8,0.6
						c-0.3,0-0.4-0.1-0.5-0.9c-0.1-0.4-0.1-0.4-2.1-1.3c-0.8-0.4-0.8-0.4-0.8-0.5c0-0.1,0.1-0.1,0.2-0.1h0.2l0.4,0
						c0.8,0,1.6,0,2.1,0c0.5,0,0.6-0.1,0.6-0.6V47H125c-0.6,0-0.7,0-4,0.1l-0.4-0.8L123.2,46.3z M125.5,34.5
						c1.3,0.6,1.9,1.4,1.9,2.5c0,0.8-0.5,1.4-1.3,1.4c-0.6,0-0.8-0.3-1.1-1.4c-0.2-1.1-0.7-1.9-1.4-2.5c-0.2-0.1-0.2-0.2-0.2-0.3
						s0.1-0.1,0.2-0.1C124.1,34,124.9,34.2,125.5,34.5z M130.2,34.1c1.2,0.6,1.9,1.5,1.9,2.4c0,0.7-0.6,1.3-1.3,1.3
						c-0.4,0-0.7-0.2-0.8-0.5c-0.2-0.3-0.2-0.3-0.5-1.4c-0.2-0.8-0.7-1.5-1.3-1.9c-0.3-0.2-0.4-0.3-0.4-0.4c0-0.1,0.1-0.2,0.2-0.2
						C128.4,33.5,129.6,33.8,130.2,34.1z"/>
					<path class="st1" d="M144.7,45c-0.9,1.3-1.7,2.1-2,2.1c-0.1,0-0.2-0.1-0.2-0.2c0-0.1,0-0.1,0.1-0.3c1.7-2.8,3.1-7.4,3.1-10.7
						c-1.4,0-1.6,0-2.7,0.1l-0.2-0.7c2,0.1,2.2,0.1,3,0.1h2.9l1.4-1.6l1.3,1h8.2l1.5-1.9l2,1.9c0.1,0.1,0.2,0.2,0.2,0.3
						c0,0.2-0.1,0.3-0.4,0.3h-2.9v7.7h0.1l1.5-2.2l1.8,2.1c0.1,0.2,0.2,0.3,0.2,0.4c0,0.2-0.1,0.3-0.4,0.3h-3.2v8.2
						c0,0.5-0.1,0.6-0.3,0.7c-0.2,0.1-1.1,0.2-1.5,0.2c-0.3,0-0.4-0.1-0.4-0.5v-8.7h-2.1c-0.1,3.8-0.7,5.7-2.4,7.4
						c-1,1-2,1.7-3.7,2.3c-0.2,0.1-0.4,0.2-0.5,0.2c-0.1,0-0.2-0.1-0.2-0.2c0-0.1,0.1-0.2,0.2-0.3c3.1-2.2,4.3-4.8,4.3-9.4l-1.3,0
						l-0.8,0l-0.3-0.5l-0.3,0.1v6.8c0,0.4-0.1,0.5-0.5,0.6c-0.4,0.1-1,0.2-1.3,0.2c-0.3,0-0.4-0.1-0.4-0.3v-1h-1.8v1.7
						c0,0.3-0.1,0.5-0.5,0.6c-0.4,0.2-0.9,0.3-1.3,0.3c-0.3,0-0.3-0.1-0.3-0.5V45z M148.3,36c-0.4,2.2-1.1,4.2-1.9,6h1.9l0.7-1.3
						l2,1.7c0.2,0.2,0.3,0.3,0.3,0.6l0.8,0c0,0,0.6,0,1.3,0v-7.7H152c0.1,0.1,0.1,0.2,0.1,0.3c0,0.2-0.2,0.3-0.4,0.3H148.3z
						 M148.5,49.1v-6.6h-1.8v6.6H148.5z M155.6,43.1h2.1v-7.7h-2.1V43.1z"/>
					<path class="st1" d="M169.3,36.4c0,0.2,0,0.4,0,0.5c0,1.7-1,3.2-2.2,3.2c-0.7,0-1.4-0.6-1.4-1.3c0-0.6,0.2-0.8,1.1-1.4
						c0.9-0.5,1.5-1.5,1.5-2.6c0-0.4,0-0.4,0.2-0.4c0.2,0,0.3,0.3,0.6,1.4h5.1v-2.8l2.8,0.3c0.3,0,0.5,0.2,0.5,0.5
						c0,0.2-0.1,0.4-0.4,0.5l-0.6,0.3v1.2h5.3l0.9-1.4l2.4,2.3c0.2,0.2,0.3,0.4,0.3,0.6c0,0.3-0.2,0.4-0.6,0.4h-1.2
						c-0.1,0.1-0.2,0.1-0.3,0.2c-0.4,0.3-0.7,0.5-1.1,0.7l-1.2,0.8c-0.5,0.3-0.6,0.4-0.7,0.4c-0.1,0-0.2-0.1-0.2-0.2
						c0-0.1,0-0.1,0.2-0.4c0.4-0.6,1.2-2.2,1.4-2.9h-3v3.9c0,0.4,0.1,0.4,1.7,0.4c2.3,0,2.4,0,3.4-2.4c0.1-0.3,0.1-0.3,0.2-0.3
						c0.1,0,0.2,0.1,0.2,0.3c0,0.1,0,0.3,0,0.6c0,0.3,0,0.6,0,0.8c0,0.5,0.1,0.6,0.5,1c0.4,0.4,0.5,0.4,0.5,0.6c0,0.5-0.5,0.8-1.4,1
						c-0.6,0.1-1.8,0.2-3.1,0.2c-3.6,0-4.1-0.2-4.1-1.5v-4.7h-2.2c-0.7,3-1.5,4.4-3.1,5.7c-1,0.8-2.1,1.4-3.5,1.8
						c-0.6,0.2-1.4,0.4-1.6,0.4c-0.1,0-0.2-0.1-0.2-0.2c0-0.1,0-0.1,0.4-0.2c3.5-1.7,5.2-4,5.6-7.5H169.3z M174.9,45.7
						c-0.7,2.9-1.7,4.4-3.9,5.6c-1.2,0.7-2.8,1.3-3.9,1.6c-0.8,0.2-0.8,0.2-0.9,0.2c-0.1,0-0.2-0.1-0.2-0.2c0-0.1,0-0.1,0.8-0.5
						c3.2-1.5,5-3.7,5.6-6.7h-2.5c-0.8,0-1.5,0-3.5,0.1l-0.3-0.8c2.3,0.1,3,0.1,3.8,0.1h2.6c0.2-1,0.3-2,0.4-3.8l2.8,0.4
						c0.2,0,0.4,0.2,0.4,0.4c0,0.1-0.1,0.3-0.3,0.4l-0.6,0.4c-0.2,1.1-0.3,1.5-0.4,2.1h2.3l0.9-1.5l2,1.8c0.2,0.2,0.3,0.3,0.3,0.5
						c0,0.2-0.1,0.3-0.4,0.4l-0.5,0.2v3.3c0,0.5,0.1,0.5,1.5,0.5c1.1,0,1.6-0.1,1.8-0.3c0.2-0.2,0.6-1.1,1.1-2.7
						c0.4-1.2,0.4-1.2,0.6-1.2c0.1,0,0.2,0.1,0.2,0.3c0,0,0,0,0,0.9c0,1.6,0,2,0,2.2c0,0.4,0,0.4,0.6,0.9c0.2,0.2,0.3,0.4,0.3,0.6
						c0,0.9-1.3,1.3-4.6,1.3c-3.3,0-3.9-0.2-3.9-1.3v-5.4H174.9z"/>
					<path class="st1" d="M191.8,44.2c-0.1,2.7-0.3,3.8-0.8,5.1c-0.5,1.3-1.3,2.4-2.6,3.7c-0.3,0.4-0.4,0.4-0.5,0.4
						c-0.1,0-0.2-0.1-0.2-0.2c0-0.1,0-0.2,0.2-0.4c1.3-2.4,1.7-4.6,1.7-10.5c0-1.1,0-2.2-0.2-4.5l2.6,1.3h2.8l0.8-1.4l2.2,1.9
						c0.1,0.1,0.2,0.3,0.2,0.4c0,0.2-0.1,0.3-0.3,0.4l-0.5,0.3v4.4c0,0.3-0.1,0.5-0.6,0.6c-0.4,0.1-0.8,0.2-1.1,0.2
						c-0.4,0-0.5-0.1-0.5-0.6v-1.2H191.8z M198,35.3c0.1,0.1,0.2,0.2,0.2,0.4c0,0.2-0.2,0.4-0.4,0.4h-7c-0.9,0-1.3,0-2.7,0.1
						l-0.3-0.7c1.5,0.1,2.1,0.1,3,0.1h3.9l1.3-1.8L198,35.3z M191.8,43.6h3.2v-3.7h-3.2V43.6z M201,42c-0.2,4.8-0.9,6.8-2.9,9
						c-0.9,0.9-3.1,2.4-3.5,2.4c-0.1,0-0.2-0.1-0.2-0.2c0-0.1,0-0.1,0.4-0.5c1.5-1.4,2.6-2.9,3.2-4.6c0.6-1.7,0.7-3.4,0.7-8
						c0-1.6,0-2.6-0.2-4.8l2.6,1.2c1.5-0.7,2.6-1.6,4.1-2.9l2.1,1.8c0.2,0.2,0.3,0.3,0.3,0.4c0,0.2-0.2,0.3-0.5,0.3l-1.2,0.1
						c-1.9,0.4-3.9,0.7-4.8,0.8c0,1,0,1.6,0,2c0,0.6,0,0.6,0,2.4h3.7l1.4-1.9l2,1.7c0.2,0.1,0.2,0.3,0.2,0.5c0,0.2-0.2,0.3-0.4,0.3
						h-2.6v10.2c0,0.4-0.1,0.6-0.4,0.7c-0.3,0.1-0.9,0.2-1.4,0.2c-0.4,0-0.6-0.1-0.6-0.4V42H201z"/>
				</g>
			</g>
			<g>
				<g>
					<path class="st1" d="M56.5,27.8c0.8-0.1,1-0.1,2.3-0.3V26h-0.6c-0.5,0-0.7,0-1.3,0l-0.2-0.4l0.9,0c0.3,0,0.5,0,0.6,0h0.6v-1.3
						H58v0.4c0,0.1,0,0.2-0.2,0.2c-0.1,0.1-0.6,0.1-0.7,0.1c-0.2,0-0.2-0.1-0.2-0.2V20l1.2,0.5h2.3l0.4-0.7l1,0.9
						c0.1,0.1,0.1,0.2,0.1,0.2c0,0.1-0.1,0.2-0.2,0.3l-0.2,0.1v3.1c0,0.1-0.1,0.2-0.2,0.2c-0.1,0-0.6,0.1-0.7,0.1
						c-0.1,0-0.2-0.1-0.2-0.2v-0.3h-0.7v1.3h0.8l0.6-0.8l0.9,0.8c0.1,0.1,0.1,0.2,0.1,0.2c0,0.1-0.1,0.1-0.2,0.1h-2.2v1.3
						c0.3,0,0.8-0.1,2.3-0.4c0,0,0.1,0,0.1,0c0.1,0,0.1,0,0.1,0.1s-0.1,0.1-0.5,0.3c-1.2,0.5-2.7,1.1-3.7,1.4l-0.1,0.3
						c-0.1,0.2-0.2,0.3-0.3,0.3c-0.1,0-0.2-0.1-0.3-0.2L56.5,27.8z M58,22.3h0.7v-1.5H58V22.3z M58,24h0.7v-1.4H58V24z M60.5,22.3
						v-1.5h-0.7v1.5H60.5z M59.8,24h0.7v-1.4h-0.7V24z M64.3,28.4c0,0.4-0.2,0.6-0.6,0.8c-0.2,0.1-0.6,0.2-0.8,0.2
						c-0.2,0-0.2,0-0.2-0.4c0-0.2,0-0.2-0.1-0.3c-0.1-0.1-0.3-0.1-0.9-0.3c-0.5-0.2-0.5-0.2-0.5-0.3c0-0.1,0-0.1,0.3-0.1l0.6,0
						c0.8,0,0.9,0,0.9,0c0,0,0.1-0.1,0.1-0.3V24c-0.5,0-0.6,0-1.2,0l-0.2-0.4c0.5,0,0.9,0,1.5,0h2l0.5-0.7l1,1.2
						c0.1,0.1,0.1,0.2,0.1,0.3c0,0.1-0.1,0.1-0.3,0.2L66,24.8c-0.4,0.3-0.5,0.3-0.6,0.4c-0.3,0.2-0.4,0.3-0.5,0.3
						c-0.1,0.1-0.2,0.1-0.3,0.2c-0.1,0.1-0.1,0.1-0.2,0.1c0,0-0.1,0-0.1-0.1c0,0,0,0,0-0.1c0.5-0.8,0.8-1.4,0.8-1.7h-0.9V28.4z
						 M63.4,20.5h1.4l0.5-0.7l1,1c0.1,0.1,0.1,0.2,0.1,0.3c0,0.1-0.1,0.2-0.3,0.3l-0.5,0c-0.3,0.2-1.2,0.8-1.4,0.9
						c0.2,0.2,0.3,0.4,0.3,0.7c0,0.4-0.3,0.7-0.6,0.7c-0.3,0-0.4-0.1-0.7-0.7c-0.3-0.7-0.4-0.9-1-1.2c-0.1-0.1-0.1-0.1-0.1-0.1
						c0,0,0-0.1,0.1-0.1c0.6,0,1.3,0.2,1.7,0.5c0.3-0.5,0.7-1,0.8-1.3h-1.4c-0.3,0-0.5,0-1.3,0l-0.2-0.4L63.4,20.5z"/>
					<path class="st1" d="M88.2,24.9l0.8,0.8c0.1,0.1,0.2,0.2,0.2,0.2c0,0.1-0.1,0.1-0.2,0.1h-4.5c1.1,1.1,2.7,1.8,4.9,2.1
						c-0.6,0.4-0.8,0.7-1.1,1.3c-1.9-0.7-3.3-1.7-4.1-3.2c-0.5,1.3-1.2,2-2.9,2.7c-0.7,0.3-1.8,0.6-2.1,0.6c-0.1,0-0.1,0-0.1-0.1
						c0-0.1,0-0.1,0.4-0.2c2.1-0.8,3.2-1.8,3.6-3.1h-1.9c-1,0-1.5,0-2,0.1L79,25.7c0.8,0,0.9,0,1.6,0.1v-3.1l1.3,0.6h1.5
						c0-0.7,0-0.9,0-1.5l1.3,0.1c0.2,0,0.3,0.1,0.3,0.2c0,0.1-0.1,0.2-0.2,0.3l-0.2,0.1c0,0.3,0,0.4,0,0.7h1.7l0.4-0.7l0.9,0.8
						c0.1,0.1,0.2,0.2,0.2,0.3c0,0.1-0.1,0.2-0.2,0.2l-0.1,0.1v1.7h0.1L88.2,24.9z M83,22.4c0,0.2-0.4,0.3-0.9,0.3
						c-0.2,0-0.2,0-0.2-0.2v-1.2h-0.6c-0.5,0-0.9,0-2,0.1L79.1,21l1.2,0c0.4,0,0.8,0,1,0h0.6v-1.7l1.3,0.1c0.1,0,0.2,0.1,0.2,0.2
						c0,0.1-0.1,0.2-0.2,0.3L83,20.1v1h2.1v-1.7l1.3,0.1c0.2,0,0.3,0.1,0.3,0.2c0,0.1-0.1,0.2-0.2,0.3l-0.2,0.2v0.9h1l0.8-1l1,0.9
						c0.1,0.1,0.2,0.2,0.2,0.3c0,0.1-0.1,0.1-0.2,0.1h-2.8v0.9c0,0.2-0.5,0.3-1,0.3c-0.2,0-0.2,0-0.2-0.1v-1.1H83V22.4z M81.8,25.8
						h1.4c0.1-0.4,0.2-1.4,0.2-2.2h-1.6V25.8z M84.6,23.6c0,0.8-0.1,1.6-0.2,2.2h1.9v-2.2H84.6z"/>
					<path class="st1" d="M91.5,23l-0.7,0l-0.1-0.4l0.8,0l0.8,0v-2.8l1.3,0.2c0.3,0,0.4,0.1,0.4,0.3c0,0.1-0.1,0.2-0.2,0.3l-0.3,0.2
						v2h1.4v-3.3l1.3,0.1c0.2,0,0.3,0.1,0.3,0.2c0,0.1-0.1,0.2-0.2,0.3l-0.2,0.2v2.5h1.3v-3l1.1,0.1c0.3,0,0.4,0.1,0.4,0.2
						c0,0.1-0.1,0.2-0.2,0.3l-0.2,0.1v2.3H99l0.6-1l1,0.9c0.1,0.1,0.1,0.2,0.1,0.2c0,0.1-0.1,0.2-0.2,0.2h-1.9v3.3
						c0,0.1-0.1,0.2-0.2,0.3c-0.1,0.1-0.5,0.2-0.7,0.2c-0.2,0-0.3-0.1-0.3-0.2V26h-1.3v0.6c0,0.2-0.1,0.3-0.2,0.3
						c-0.1,0.1-0.4,0.1-0.6,0.1c-0.3,0-0.3-0.1-0.3-0.4V23h-1.4v5.2h5.1l0.6-1l1,0.9c0.1,0.1,0.2,0.2,0.2,0.3c0,0.1-0.1,0.1-0.2,0.1
						h-6.7v0.4c0,0.2-0.1,0.2-0.2,0.3c-0.1,0.1-0.5,0.1-0.7,0.1c-0.3,0-0.3-0.1-0.3-0.3V23L91.5,23z M96.1,25.7h1.3V23h-1.3V25.7z"
						/>
					<path class="st1" d="M105.8,20.8l0.8,0.7c0.2,0.1,0.2,0.2,0.2,0.3c0,0.1-0.1,0.2-0.3,0.2h-2.9c-0.3,0-0.6,0-1.3,0l-0.2-0.4
						l0.8,0c0.3,0,0.5,0,0.7,0h1.6L105.8,20.8z M103.5,28.9c0,0.1,0,0.1-0.1,0.2c-0.2,0.1-0.5,0.2-0.8,0.2c-0.2,0-0.2,0-0.2-0.2
						v-3.9l1.2,0.6h1.1l0.3-0.7l1,0.8c0.1,0.1,0.2,0.2,0.2,0.3c0,0.1,0,0.1-0.2,0.2l-0.2,0.1v2.1c0,0.2-0.4,0.4-0.9,0.4
						c-0.2,0-0.2,0-0.2-0.2v-0.3h-1.3V28.9z M105.3,19.5l0.8,0.7c0.1,0.1,0.2,0.2,0.2,0.2c0,0.1-0.1,0.2-0.3,0.2h-3.5v-0.3h2.3
						L105.3,19.5z M105.3,22.3l0.7,0.6c0.1,0.1,0.1,0.2,0.1,0.2c0,0.1-0.1,0.2-0.3,0.2h-3.4V23h2.3L105.3,22.3z M105.4,23.6l0.8,0.7
						c0.1,0.1,0.1,0.1,0.1,0.2c0,0.1-0.1,0.1-0.2,0.1h-3.5v-0.3h2.3L105.4,23.6z M104.9,28.1V26h-1.3v2.1H104.9z M107.9,20.8
						c-0.3,0-0.6,0-1.3,0l-0.1-0.4l0.8,0c0.3,0,0.6,0,0.7,0h1.9l0.5-0.8l1,0.9c0.2,0.2,0.2,0.3,0.2,0.3c0,0.1-0.1,0.1-0.2,0.2
						l-0.2,0.1v3.4c0,0.1,0,0.1-0.1,0.2c-0.1,0.1-0.6,0.2-0.9,0.2c-0.2,0-0.2-0.1-0.2-0.2v-0.5h-2v3.4c0,0.3,0,0.3,0.6,0.3
						c2.1,0,2.1,0,2.3-0.3c0.2-0.2,0.6-1.2,0.8-1.8c0-0.1,0.1-0.1,0.1-0.1c0.1,0,0.1,0,0.1,0.1l0,0.1l0,0.4l0,0.6c0,0.4,0,0.7,0,0.7
						c0,0.1,0,0.2,0.2,0.3c0.3,0.2,0.3,0.3,0.3,0.4c0,0.6-0.7,0.7-3.1,0.7c-1.3,0-1.9-0.1-2.2-0.2c-0.1-0.1-0.2-0.2-0.2-0.5v-4.9
						l1.3,0.5h1.9v-3.2H107.9z"/>
					<path class="st1" d="M116.3,22.7c-0.6,0.5-1.1,0.7-2,1.1c-0.3,0.1-0.5,0.2-0.5,0.2c0,0-0.1,0-0.1-0.1c0-0.1,0-0.1,0.3-0.2
						c1.6-1,3-2.6,3.9-4.3l1.3,0.4c0.3,0.1,0.3,0.1,0.3,0.2c0,0.1-0.1,0.2-0.3,0.2l-0.1,0c0.9,1.1,2.7,2,4.9,2.6
						c-0.1,0.1-0.2,0.2-0.2,0.2c-0.4,0.3-0.7,0.6-0.8,0.9c-1.7-0.7-2.9-1.8-4.1-3.5C118.1,21.3,117.3,22,116.3,22.7l2.7,0l0.6-0.8
						l0.9,0.7c0.1,0.1,0.1,0.2,0.1,0.2c0,0.1-0.1,0.1-0.2,0.1h-3.9L116.3,22.7z M115.4,26c0.1,0.3,0.1,0.8,0.1,1
						c0,1-0.4,1.7-1.1,1.7c-0.4,0-0.6-0.2-0.6-0.5c0-0.3,0-0.4,0.5-0.7c0.6-0.4,0.8-0.8,0.9-1.5c0-0.1,0-0.1,0.1-0.1
						C115.4,25.9,115.4,25.9,115.4,26z M116.9,24.2c-0.4,0-0.4,0-1.8,0l-0.1-0.4c1.1,0,1.5,0.1,1.9,0.1h3l0.4-0.6l1,0.9
						c0.1,0.1,0.1,0.1,0.1,0.2c0,0.1-0.1,0.2-0.2,0.2l-0.3,0.1l-0.6,1.4c-0.1,0.1-0.2,0.2-0.3,0.2c-0.1,0-0.6-0.1-0.8-0.2
						c-0.1,0-0.1-0.1-0.1-0.2c0,0,0-0.1,0.1-0.2l0.7-1.4H116.9z M117.1,27.9c0,0.3,0.1,0.3,0.7,0.3c0.8,0,1.8,0,1.9-0.1
						c0.5-0.1,0.7-0.3,1.1-1.2c0.1-0.1,0.1-0.2,0.1-0.3c0,0,0-0.1,0-0.1c0-0.1,0.1-0.1,0.1-0.1c0.1,0,0.1,0,0.1,0.1c0,0,0,0.1,0,0.1
						l0,0.2l0,0.5c0,0.4,0,0.4,0,0.5c0,0.1,0.1,0.2,0.3,0.5c0.2,0.2,0.2,0.2,0.2,0.3c0,0.4-0.8,0.6-3.1,0.6c-0.5,0-1.4,0-1.8,0
						c-0.5,0-0.7-0.2-0.7-0.7v-2.7l1.2,0.1c0.2,0,0.3,0.1,0.3,0.2c0,0.1,0,0.2-0.2,0.3l-0.2,0.2V27.9z M118.2,25.3
						c0.7,0.3,1.1,0.8,1.1,1.3c0,0.4-0.3,0.6-0.6,0.6c-0.3,0-0.4-0.1-0.5-0.7c-0.2-0.7-0.5-1-0.9-1.3c-0.1,0-0.1-0.1-0.1-0.1
						c0,0,0-0.1,0.1-0.1C117.4,25,117.9,25.2,118.2,25.3z M122.5,26.3c0.8,0.4,1.4,1,1.4,1.6c0,0.4-0.3,0.8-0.7,0.8
						c-0.1,0-0.3-0.1-0.4-0.2c-0.1-0.1-0.1-0.1-0.3-0.7c-0.3-0.9-0.5-1.2-1.1-1.7c-0.1,0-0.1-0.1-0.1-0.1c0,0,0-0.1,0.1-0.1
						C121.5,26,122.1,26.2,122.5,26.3z"/>
				</g>
			</g>
			<g>
				<path class="st1" d="M81.8,51.4c0,0.4-0.1,0.6-0.5,0.7c-0.4,0.2-1.1,0.3-1.6,0.3c-0.5,0-0.6-0.2-0.6-0.8V34.9l3.1,1.6h11.3
					l1-1.7l2.3,1.8c0.3,0.3,0.5,0.5,0.5,0.7c0,0.3-0.2,0.5-0.6,0.6L96.4,38v12.9c0,0.4-0.2,0.7-0.6,0.9c-0.4,0.1-1.1,0.3-1.6,0.3
					c-0.4,0-0.5-0.1-0.5-0.5v-1.5h-12V51.4z M81.8,49.5h12V37.1h-12V49.5z"/>
			</g>
			<g>
				<path class="st1" d="M70,28.5c0,0.2-0.1,0.3-0.2,0.4C69.6,28.9,69.2,29,69,29c-0.2,0-0.3-0.1-0.3-0.4v-8.1l1.5,0.8h5.5l0.5-0.8
					l1.1,0.9c0.2,0.1,0.2,0.2,0.2,0.3c0,0.1-0.1,0.2-0.3,0.3L77.1,22v6.2c0,0.2-0.1,0.4-0.3,0.4c-0.2,0.1-0.6,0.1-0.8,0.1
					c-0.2,0-0.2-0.1-0.2-0.2v-0.7H70V28.5z M70,27.5h5.8v-6H70V27.5z"/>
			</g>
		</g>
		<g>
			<g>
				<g>
					<path class="st2" d="M38.9,2.6c0.2,0.1,0.4,0.1,0.4,0.2c0,0.1-0.1,0.1-0.1,0.1C39,3,39,3.1,39,3.3c0,0.1-0.1,0.2-0.1,0.3
						c0,0.1,0.1,0.1,0.1,0.1c0,0,0.1,0,0.1,0c0.3-0.1,0.7-0.2,1.1-0.3c0,0,0.1,0,0.2,0c0.2,0,0.3,0.7,0.3,0.7c0,0.2-0.2,0.2-0.4,0.3
						c-0.4,0.1-0.9,0.2-1.3,0.2c-0.2,0-0.2,0.3-0.2,0.4C38.7,5,38.8,5,38.9,5c0,0,0,0,0.1,0c0.2,0,0.4,0,0.6,0
						c1.4,0,2.6,0.7,2.6,2.2c0,2-2.5,2.8-2.8,2.8c-0.2,0-0.4-0.5-0.4-0.7c0-0.1,0.1-0.1,0.2-0.1c0.9-0.3,2.1-0.8,2.1-1.9
						c0-1-0.8-1.3-0.9-1.3c-0.1,0-0.2,0.1-0.2,0.2c-0.3,0.6-0.7,1.2-1.2,1.7C38.8,8,38.8,8,38.8,8.1c0,0,0,0.3,0.1,0.3v0
						c0,0.2-0.5,0.5-0.7,0.5c-0.1,0-0.1-0.1-0.2-0.1c0,0,0-0.1-0.1-0.1c0,0-0.1,0-0.1,0c-0.4,0.3-0.9,0.5-1.3,0.5
						c-0.6,0-1-0.5-1-1.1c0-1.2,1.1-2.3,2.2-2.8c0.1,0,0.3-0.1,0.3-0.5c0-0.1-0.1-0.2-0.2-0.2c0,0-0.2,0-0.2,0c-0.3,0-0.7,0.1-1,0.1
						c-0.4,0-0.4,0-0.4-0.4c0-0.4,0.1-0.5,0.2-0.5c0.2,0,0.3,0,0.5,0c0.3,0,0.6,0,0.9,0c0.1,0,0.2,0,0.2-0.1C38,3.7,38,3.7,38,3.6
						c0-0.3,0.1-0.6,0.1-1c0-0.1,0-0.1,0.1-0.1C38.3,2.5,38.8,2.6,38.9,2.6z M36.3,8c0,0.2,0.1,0.3,0.3,0.3c0.3,0,0.8-0.3,1.1-0.5
						c0.1-0.1,0.1-0.2,0.1-0.3c0-0.1,0-0.5,0-0.7c0-0.1,0-0.2,0-0.3c0-0.1,0-0.2-0.1-0.2C37.5,6.4,36.3,7.3,36.3,8z M38.7,5.9
						c-0.1,0.1-0.1,0.2-0.1,0.4v0.1c0,0.1,0,0.4,0.1,0.4c0.2,0,0.5-0.6,0.6-0.8c0,0,0.1-0.1,0.1-0.1c0-0.1-0.1-0.1-0.1-0.1
						C39.1,5.8,38.8,5.8,38.7,5.9z"/>
					<path class="st2" d="M48.5,2.5c0,0,0.1,0,0.1,0.1c0,0.1-0.1,0.1-0.1,0.2c-0.1,0.1-0.1,0.4-0.2,0.5c0,0.1-0.1,0.4-0.1,0.4
						c0,0.1,0,0.1,0.1,0.1c0.1,0,0.4-0.1,0.5-0.1c0,0,0.1,0,0.1,0c0.1,0,0.1,0.2,0.1,0.3c0,0.1,0,0.4,0,0.5c0,0.2-0.1,0.2-0.9,0.4
						c-0.3,0.1-0.3,0.1-0.4,0.4c-0.4,1.1-0.9,2.2-1.5,3.2c-0.1,0.1-0.1,0.1-0.2,0.1c-0.2,0-0.8-0.3-0.8-0.4c0-0.1,0.1-0.3,0.2-0.3
						c0.4-0.6,0.8-1.4,1.1-2.1c0-0.1,0.2-0.5,0.2-0.5c0-0.1,0-0.1-0.1-0.1c-0.1,0-0.8,0.1-1,0.1c-0.2,0-0.2-0.1-0.2-0.3
						c0-0.1-0.1-0.4-0.1-0.5c0-0.1,0.1-0.1,0.2-0.1h0.4c0.3,0,0.6,0,0.9,0c0.1,0,0.2,0,0.3-0.1c0.1-0.2,0.3-1.2,0.3-1.5
						c0-0.1,0-0.2,0.1-0.2C47.6,2.3,48.3,2.5,48.5,2.5z M49.8,5.2c0.1,0,0.2,0.1,0.2,0.2c0,0,0,0.3,0,0.5c0,0.3,0,1.6,0.1,1.7
						c0,0.1,0.1,0.2,0.3,0.2c0,0,0.1,0,0.1,0c0.2,0.1,1.3,0.6,1.3,0.8c0,0.1-0.3,0.7-0.6,0.7c-0.1,0-0.2-0.1-0.2-0.1
						c-0.1-0.1-0.6-0.4-0.7-0.4C50.1,8.8,50,8.9,50,9c-0.1,0.7-0.6,0.9-1.3,0.9c-0.7,0-1.6-0.4-1.6-1.2c0-0.8,0.8-1.1,1.5-1.1h0.2
						c0.1,0,0.2,0,0.2-0.2c0-0.3-0.1-1.6-0.2-1.9c0,0,0-0.1,0-0.1c0-0.1,0.1-0.2,0.2-0.2C49.3,5.1,49.6,5.2,49.8,5.2z M48.1,8.6
						c0,0.3,0.4,0.4,0.6,0.4c0.3,0,0.5-0.2,0.5-0.5c0-0.2,0-0.3-0.5-0.3C48.5,8.3,48.1,8.3,48.1,8.6z M52,5.2c0,0.2-0.5,0.6-0.7,0.6
						c-0.1,0-0.2-0.1-0.2-0.2c-0.3-0.4-0.7-0.9-1.1-1.2c0,0-0.1-0.1-0.1-0.1c0-0.1,0.4-0.6,0.6-0.6C50.8,3.7,52,5,52,5.2z"/>
					<path class="st2" d="M58.3,2.4c0.1,0,0.3,0.1,0.3,0.2c0,0-0.1,0.1-0.1,0.1c-0.1,0.1-0.1,0.1-0.2,0.3c0,0.1-0.2,0.8-0.2,0.8
						c0,0.1,0.1,0.1,0.1,0.1c0.2,0,0.9-0.3,1-0.3c0.1,0,0.1,0,0.2,0c0.2,0,0.2,0.5,0.2,0.7c0,0.2,0,0.3-0.2,0.3
						c-0.4,0.1-1,0.3-1.5,0.4c-0.3,0.1-0.3,0.1-0.4,0.4c-0.4,1.2-1.1,2.9-1.7,4c-0.1,0.2-0.2,0.3-0.3,0.3c-0.1,0-0.8-0.3-0.8-0.5
						c0-0.1,0.1-0.2,0.2-0.3c0.6-0.8,1.2-2.4,1.6-3.3c0-0.1,0.1-0.2,0.1-0.2c0-0.1-0.1-0.1-0.2-0.1c-0.1,0-0.5,0-0.8,0
						c-0.2,0-0.3,0-0.4-0.2c0-0.1-0.1-0.5-0.1-0.7c0-0.1,0-0.2,0.1-0.2c0.1,0,0.5,0,0.8,0c0.6,0,0.7,0,0.8-0.1
						c0.1-0.2,0.3-1.4,0.3-1.6c0-0.1,0-0.2,0.1-0.2C57.6,2.2,58.2,2.3,58.3,2.4z M58.2,8.2c0.4,0.4,1.1,0.5,1.6,0.5
						c0.5,0,0.8,0,1.3-0.2c0,0,0.1,0,0.1,0c0.2,0,0.2,0.2,0.2,0.6c0,0.2,0,0.4-0.1,0.4c-0.2,0.1-1.2,0.1-1.4,0.1
						c-0.6,0-1.4-0.1-1.9-0.4c-0.1-0.1-0.4-0.3-0.4-0.5c0-0.1,0.4-0.7,0.6-0.7C58.1,8.1,58.2,8.1,58.2,8.2z M59.3,5.3
						c0.5,0,1.4,0.1,1.8,0.3c0.1,0,0.1,0.1,0.1,0.2c0,0.1-0.1,0.5-0.2,0.6c0,0.1-0.1,0.1-0.2,0.1c-0.1,0-0.1,0-0.2,0
						c-0.4-0.2-0.9-0.2-1.4-0.2c-0.1,0-0.2,0-0.3,0c-0.2,0-0.2,0-0.2-0.2C58.7,5.2,58.9,5.3,59.3,5.3z"/>
					<path class="st2" d="M70.8,4c0.6,0.6,0.9,1.4,0.9,2.2c0,1.3-0.7,2.3-1.8,2.9c-0.2,0.1-0.8,0.4-1,0.4c-0.2,0-0.6-0.6-0.6-0.8
						c0-0.1,0.1-0.1,0.2-0.1c1.2-0.3,2.1-1.1,2.1-2.3c0-1-0.5-1.8-1.4-2.2C69.2,4.1,69,4,68.9,4c-0.2,0-0.2,0.2-0.2,0.4
						c-0.1,1.3-0.4,2.9-1.3,3.9C67.1,8.7,66.7,9,66.2,9c-0.5,0-1-0.4-1.2-0.9c-0.2-0.4-0.3-0.9-0.3-1.3c0-2.1,1.6-3.8,3.7-3.8
						C69.4,3.1,70.2,3.4,70.8,4z M67.3,4.3c-1,0.5-1.6,1.4-1.6,2.6c0,0.3,0.1,1.2,0.6,1.2c0.4,0,1-1,1.2-1.9
						c0.1-0.4,0.3-1.3,0.3-1.8c0-0.1,0-0.2-0.1-0.2C67.5,4.2,67.4,4.2,67.3,4.3z"/>
					<path class="st2" d="M76.8,7.7c0,0.5,0,1.5,0,1.6c0,0.2-0.1,0.2-0.3,0.2H76c-0.2,0-0.3,0-0.3-0.2c0-0.1,0-1.1,0-1.6V4.6
						c0-0.2,0-0.2-0.1-0.2c0,0-0.1,0-0.1,0c-0.3,0.1-0.6,0.2-0.8,0.3c-0.1,0-0.1,0.1-0.2,0.1c-0.1,0-0.1-0.1-0.2-0.2l-0.2-0.4
						c0-0.1,0-0.1,0-0.2c0-0.1,0.1-0.1,0.2-0.2c0.4-0.1,1-0.3,1.4-0.5c0.2-0.1,0.3-0.1,0.5-0.1h0.2c0.2,0,0.3,0,0.3,0.2
						c0,0.1,0,1.1,0,1.6V7.7z"/>
					<path class="st2" d="M85.3,6.2c0,2.1-1.2,3.4-2.7,3.4c-1.4,0-2.6-1.1-2.6-3.1c0-1.8,0.9-3.3,2.7-3.3
						C84.1,3.1,85.3,4.1,85.3,6.2z M81.1,6.5c0,1.4,0.6,2.2,1.5,2.2c1,0,1.7-0.9,1.7-2.4c0-1.4-0.7-2.1-1.5-2.1
						C81.6,4.1,81.1,5.2,81.1,6.5z"/>
					<path class="st2" d="M93.1,6.2c0,2.1-1.2,3.4-2.7,3.4c-1.4,0-2.6-1.1-2.6-3.1c0-1.8,0.9-3.3,2.7-3.3
						C91.9,3.1,93.1,4.1,93.1,6.2z M88.8,6.5c0,1.4,0.6,2.2,1.5,2.2c1,0,1.7-0.9,1.7-2.4c0-1.4-0.7-2.1-1.5-2.1
						C89.3,4.1,88.8,5.2,88.8,6.5z"/>
					<path class="st2" d="M100.4,4.8c0,0.2,0.1,0.2,0.3,0.3h0.7c0.3,0,0.6,0,0.9,0c0.2,0,0.2,0.1,0.2,0.5c0,0.4,0,0.4-0.2,0.4
						c-0.3,0-0.6,0-0.9,0h-0.7c-0.2,0-0.3,0.1-0.3,0.3V7c0,0.2,0.1,0.3,0.3,0.3h1.5c0.4,0,0.8,0,1.1,0c0.2,0,0.2,0.1,0.2,0.4
						c0,0.4,0,0.5-0.2,0.5c-0.4,0-0.8,0-1.1,0h-1.5c-0.2,0-0.3,0.1-0.3,0.3v0.3c0,0.4,0,0.9,0,1.3c0,0.3-0.1,0.3-0.5,0.3
						c-0.4,0-0.5,0-0.5-0.3c0-0.4,0-0.9,0-1.3V8.3c0-0.2-0.1-0.3-0.3-0.3h-2.2c-0.4,0-0.8,0-1.1,0c-0.2,0-0.2-0.1-0.2-0.4
						c0-0.4,0-0.5,0.2-0.5c0.3,0,0.6,0,0.9,0c0.2,0,0.2-0.1,0.2-0.3V6.1c0-0.2,0-0.4,0-0.7c0-0.3,0.1-0.4,0.4-0.4c0.2,0,0.4,0,0.6,0
						h1.2c0.2,0,0.3-0.1,0.3-0.3V4.1c0-0.2-0.1-0.3-0.3-0.3H98c-0.2,0-0.3,0-0.4,0.2c-0.4,0.5-0.8,1-1.2,1.5
						c-0.1,0.1-0.2,0.2-0.3,0.2c-0.2,0-0.6-0.4-0.6-0.6c0-0.1,0.2-0.2,0.2-0.3c0.8-0.7,1.5-1.7,1.8-2.7c0-0.1,0.1-0.1,0.1-0.1
						c0.1,0,0.7,0.2,0.9,0.2c0.1,0,0.2,0,0.2,0.1c0,0.1-0.1,0.1-0.1,0.1c-0.1,0-0.1,0.1-0.2,0.3c0,0,0,0.1,0,0.1
						C98.3,3,98.4,3,98.5,3h3.3c0.4,0,0.7,0,1.1,0c0.2,0,0.2,0.1,0.2,0.5c0,0.3,0,0.5-0.2,0.5c-0.4,0-0.7,0-1.1,0h-1.1
						c-0.2,0-0.3,0.1-0.3,0.3V4.8z M98,5.9c-0.2,0-0.2,0.1-0.3,0.3V7c0,0.2,0.1,0.2,0.3,0.3h1.1c0.2,0,0.2-0.1,0.3-0.3V6.2
						c0-0.2-0.1-0.2-0.3-0.3H98z"/>
					<path class="st2" d="M112.2,4c0.6,0.6,0.9,1.4,0.9,2.2c0,1.3-0.7,2.3-1.8,2.9c-0.2,0.1-0.8,0.4-1,0.4c-0.2,0-0.6-0.6-0.6-0.8
						c0-0.1,0.1-0.1,0.2-0.1c1.2-0.3,2.1-1.1,2.1-2.3c0-1-0.5-1.8-1.4-2.2c-0.1,0-0.3-0.1-0.3-0.1c-0.2,0-0.2,0.2-0.2,0.4
						c-0.1,1.3-0.4,2.9-1.3,3.9c-0.3,0.4-0.7,0.7-1.2,0.7c-0.5,0-1-0.4-1.2-0.9c-0.2-0.4-0.3-0.9-0.3-1.3c0-2.1,1.6-3.8,3.7-3.8
						C110.8,3.1,111.6,3.4,112.2,4z M108.7,4.3c-1,0.5-1.6,1.4-1.6,2.6c0,0.3,0.1,1.2,0.6,1.2c0.5,0,1-1,1.2-1.9
						c0.1-0.4,0.3-1.3,0.3-1.8c0-0.1,0-0.2-0.1-0.2C109,4.2,108.8,4.2,108.7,4.3z"/>
					<path class="st2" d="M117.3,4.7c0,0.1-0.1,0.1-0.1,0.2c-0.1,0.1-0.1,0.2-0.1,0.5v3.4c0,0.4,0,0.8,0,1.2c0,0.3-0.1,0.3-0.4,0.3
						c-0.3,0-0.4,0-0.4-0.3c0-0.4,0-0.8,0-1.2V6.3c0,0,0-0.1,0-0.1s0,0,0,0c-0.1,0.1-0.1,0.2-0.2,0.2c-0.2,0-0.5-0.5-0.5-0.7
						c0-0.1,0.1-0.2,0.1-0.3c0.5-0.9,1-2.2,1.2-3.2c0-0.1,0-0.2,0.1-0.2c0.1,0,0.6,0.2,0.7,0.2c0.1,0,0.2,0.1,0.2,0.1
						c0,0.1-0.1,0.1-0.1,0.1c-0.1,0-0.1,0-0.1,0.2c-0.1,0.5-0.3,1.2-0.5,1.7c0,0,0,0,0,0c0,0.1,0,0.1,0.1,0.1
						C117.3,4.6,117.3,4.6,117.3,4.7z M120.9,4c0.1,0,0.2-0.1,0.2-0.2V3.8c0-0.2-0.1-0.2-0.2-0.2c-0.2,0-0.5,0-0.7,0
						c-0.2,0-0.2-0.1-0.2-0.3c0-0.2,0-0.3,0.2-0.3c0.2,0,0.4,0,0.6,0c0.2,0,0.2-0.1,0.2-0.2c0-0.1,0-0.2,0-0.3c0,0,0-0.1,0-0.1
						c0-0.1,0.1-0.1,0.2-0.1c0.2,0,0.5,0,0.7,0c0.1,0,0.2,0,0.2,0.1c0,0.1,0,0.1-0.1,0.1c-0.1,0.1-0.1,0.1-0.1,0.2
						c0,0.2,0.1,0.2,0.2,0.2h0.2c0.2,0,0.4,0,0.5,0c0.3,0,0.4,0.1,0.4,0.4c0,0.2,0,0.4,0,0.5c0,0.1,0.1,0.2,0.2,0.2c0,0,0.1,0,0.1,0
						c0.2,0,0.2,0.1,0.2,0.4c0,0.2,0,0.3-0.2,0.3h-0.1c-0.1,0-0.2,0.1-0.2,0.2v0c0,0.2,0,0.4,0,0.5c0,0.3-0.1,0.4-0.4,0.4
						c-0.2,0-0.4,0-0.5,0h-0.2c-0.2,0-0.2,0.1-0.2,0.2v0c0,0.1,0.1,0.2,0.2,0.2h0.4c0.2,0,0.5,0,0.7,0c0.2,0,0.2,0.1,0.2,0.3
						c0,0.2,0,0.3-0.2,0.3c-0.3,0-0.5,0-0.7,0h-0.4c-0.2,0-0.2,0.1-0.2,0.2v0.1c0,0.1,0.1,0.2,0.2,0.2h0.5c0.3,0,0.6,0,0.9,0
						c0.2,0,0.2,0.1,0.2,0.4c0,0.3,0,0.4-0.2,0.4c-0.3,0-0.6,0-0.9,0h-0.4c-0.2,0-0.2,0.1-0.2,0.2c0,0.2,0,0.4,0,0.6
						c0,0.1,0,0.2,0.2,0.2c0.5,0,1.1,0,1.4,0c0.2,0,0.2,0.1,0.2,0.3c0,0.6-0.3,0.6-0.6,0.6c-0.6,0-1.2,0-1.8,0
						c-0.4,0-0.9-0.1-1.3-0.2c-0.4-0.1-0.8-0.3-1.1-0.5c0,0-0.1-0.1-0.1-0.1c-0.1,0-0.1,0-0.2,0.1c-0.1,0.2-0.6,0.8-0.8,0.8
						c-0.2,0-0.5-0.4-0.5-0.5c0-0.1,0.1-0.2,0.1-0.2c0.2-0.2,0.4-0.5,0.6-0.8c0-0.1,0.1-0.1,0.1-0.2c0-0.1,0-0.1-0.1-0.2
						c-0.2-0.3-0.6-1.2-0.6-1.4c0-0.2,0.5-0.3,0.6-0.3c0.2,0,0.2,0.1,0.2,0.2c0.1,0.2,0.1,0.4,0.2,0.6c0,0,0,0.1,0.1,0.1
						c0.1,0,0.1,0,0.1-0.1c0.1-0.3,0.2-1,0.2-1.3c0-0.1-0.1-0.1-0.3-0.1c-0.1,0-0.2,0-0.2,0.1c-0.1,0.1-0.1,0.1-0.2,0.1
						c-0.1,0-0.6-0.2-0.6-0.3c0,0,0.1-0.1,0.1-0.2c0.3-0.8,0.7-1.5,0.9-2.1c0,0,0-0.1,0-0.1c0-0.1-0.1-0.1-0.1-0.1h-0.1
						c-0.2,0-0.3,0-0.4,0c-0.2,0-0.2-0.1-0.2-0.4c0-0.3,0-0.4,0.2-0.4c0.1,0,0.2,0,0.4,0h0.3c0.1,0,0.2,0,0.4,0
						c0.3,0,0.6,0.2,0.6,0.5c0,0.1-0.4,1.2-0.6,1.7l-0.1,0.2c0,0,0,0,0,0.1c0,0.1,0.1,0.1,0.2,0.1h0.1c0.2,0,0.3,0,0.4,0.2
						c0.1,0.1,0.2,0.3,0.2,0.4c0,0.5-0.3,1.9-0.5,2.4c0,0.1,0,0.1,0,0.2c0,0.1,0,0.2,0.1,0.2c0.4,0.4,1,0.5,1.5,0.6
						c0.2,0,0.2-0.1,0.2-0.2c0-0.2,0-0.4,0-0.6c0-0.2-0.1-0.2-0.3-0.2h-0.1c-0.3,0-0.6,0-0.9,0c-0.2,0-0.2-0.1-0.2-0.4
						c0-0.3,0-0.4,0.2-0.4c0.3,0,0.6,0,0.9,0h0.1c0.1,0,0.2-0.1,0.2-0.2V7.2c0-0.1-0.1-0.2-0.2-0.2h-0.1c-0.2,0-0.5,0-0.7,0
						c-0.2,0-0.2-0.1-0.2-0.3c0-0.2,0-0.3,0.2-0.3c0.3,0,0.5,0,0.7,0h0.1c0.1,0,0.2-0.1,0.2-0.2v0c0-0.2-0.1-0.2-0.2-0.2
						c-0.2,0-0.4,0-0.7,0c-0.2,0-0.2-0.1-0.2-0.3c0-0.3,0-0.3,0.2-0.3c0.2,0,0.4,0,0.7,0c0.1,0,0.2-0.1,0.2-0.2V4.9
						c0-0.2-0.1-0.2-0.2-0.2h-0.3c-0.3,0-0.6,0-0.8,0c-0.2,0-0.2-0.1-0.2-0.3c0-0.3,0-0.4,0.3-0.4c0.2,0,0.4,0,0.8,0H120.9z
						 M122.4,4c0.1,0,0.2-0.1,0.2-0.2V3.8c0-0.1-0.1-0.2-0.2-0.2h-0.2c-0.1,0-0.2,0.1-0.2,0.2v0.1c0,0.1,0.1,0.2,0.2,0.2H122.4z
						 M121.9,5c0,0.1,0.1,0.2,0.2,0.2h0.2c0.1,0,0.2-0.1,0.2-0.2V4.9c0-0.1-0.1-0.2-0.2-0.2h-0.2c-0.1,0-0.2,0.1-0.2,0.2V5z"/>
					<path class="st2" d="M129.5,2.8c0.2,0,0.2-0.1,0.2-0.2c0-0.1,0-0.2,0-0.3c0,0,0-0.1,0-0.1c0-0.1,0.1-0.1,0.2-0.1
						c0.1,0,0.7,0.1,0.8,0.1c0.1,0,0.2,0,0.2,0.1c0,0.1,0,0.1-0.1,0.1c-0.1,0.1-0.1,0.1-0.1,0.2c0,0.2,0.1,0.2,0.2,0.2h1.8
						c0.4,0,0.7,0,1.1,0c0.2,0,0.2,0.1,0.2,0.4c0,0.3,0,0.4-0.2,0.4c-0.4,0-0.7,0-1.1,0h-4.9c-0.2,0-0.3,0.1-0.3,0.3v1.9
						c0,1.3-0.1,2.6-0.6,3.8c-0.2,0.5-0.3,0.6-0.4,0.6c-0.2,0-0.7-0.3-0.7-0.5c0,0,0-0.1,0.1-0.2c0.6-1.1,0.7-2.5,0.7-3.7V3.9
						c0-0.3,0-0.5,0-0.8c0-0.3,0.2-0.4,0.5-0.4c0.3,0,0.6,0,0.9,0H129.5z M129.9,8.4c0,0.1,0,0.2-0.1,0.3c-0.4,0.3-1.1,0.6-1.6,0.8
						c-0.1,0.1-0.1,0.1-0.2,0.2c0,0.1-0.1,0.1-0.1,0.1c-0.1,0-0.2-0.2-0.2-0.3c0-0.1-0.2-0.5-0.2-0.6c0-0.1,0.1-0.1,0.2-0.1
						c0.4-0.1,1.6-0.6,2-0.9c0,0,0.1,0,0.1,0C129.9,7.9,129.9,8.2,129.9,8.4z M130.2,7.2c0-0.2-0.1-0.3-0.3-0.3h-0.7
						c-0.2,0-0.4,0-0.6,0c0,0-0.1,0-0.1,0.1c0,0,0,0.1,0,0.1c0,0,0.1,0,0.1,0.1c0.2,0.2,0.5,0.4,0.5,0.5c0,0.1-0.4,0.5-0.5,0.5
						c-0.1,0-0.1,0-0.1-0.1c-0.3-0.2-0.4-0.3-0.7-0.5c-0.1,0-0.1-0.1-0.1-0.1c0-0.1,0.3-0.4,0.4-0.5c0,0,0.1,0,0-0.1
						c0-0.1,0-0.1,0-0.2c0-0.3,0-0.4,0.2-0.4c0.3,0,0.5,0,0.8,0h0.8c0.1,0,0.2,0,0.2-0.2V6.1c0-0.1,0-0.2-0.2-0.2h-1
						c-0.3,0-0.7,0-1,0c-0.2,0-0.2-0.1-0.2-0.3c0-0.2,0-0.3,0.2-0.3c0.3,0,0.7,0,1,0h1c0.1,0,0.2-0.1,0.2-0.2V5c0-0.1,0-0.2-0.2-0.2
						h-0.8c-0.3,0-0.5,0-0.8,0c-0.2,0-0.2-0.1-0.2-0.3c0-0.3,0-0.3,0.2-0.3c0.3,0,0.5,0,0.8,0h0.7c0.1,0,0.2-0.1,0.2-0.2
						c0-0.1,0-0.2,0-0.2c0-0.1,0.1-0.1,0.2-0.1c0.1,0,0.7,0.1,0.8,0.1c0.1,0,0.2,0,0.2,0.1c0,0.1,0,0.1-0.1,0.1l0,0c0,0,0,0,0,0.1
						c0,0.1,0.1,0.1,0.2,0.1h0.8c0.2,0,0.4,0,0.6,0c0.3,0,0.4,0.1,0.4,0.4c0,0.2,0,0.3,0,0.5c0,0.2,0.1,0.2,0.2,0.2
						c0.2,0,0.3,0,0.5,0c0.2,0,0.2,0.1,0.2,0.3s0,0.3-0.2,0.3c-0.2,0-0.3,0-0.5,0c-0.2,0-0.2,0.1-0.2,0.2c0,0.2,0,0.3,0,0.5
						c0,0,0,0.1,0,0.1c0,0.1,0,0.1,0.1,0.1c0.2,0.1,0.3,0.3,0.5,0.4c0.1,0,0.2,0.1,0.2,0.2c0,0.1-0.1,0.1-0.1,0.1c0,0,0,0-0.1,0
						c0,0-0.1,0-0.1,0c0,0-0.1,0-0.1,0.1c-0.2,0.2-0.4,0.4-0.6,0.6c0,0-0.1,0.1-0.1,0.1c0,0.1,0,0.1,0.1,0.1c0.3,0.2,0.7,0.4,1,0.6
						c0.1,0,0.2,0.1,0.2,0.2c0,0.2-0.3,0.6-0.5,0.6c-0.1,0-0.6-0.3-0.8-0.4c-0.6-0.4-1.1-0.8-1.5-1.3c0,0,0,0-0.1,0
						c-0.1,0-0.1,0.1-0.1,0.1v0.5c0,0.2,0,0.4,0,0.6c0,0.8-0.9,0.9-1.5,0.9c-0.2,0-0.3,0-0.4-0.2c-0.1-0.1-0.1-0.4-0.1-0.5
						c0-0.1,0-0.3,0.2-0.3c0.1,0,0.3,0,0.5,0c0.4,0,0.4-0.1,0.4-0.6V7.2z M132.2,5.3c0.1,0,0.2-0.1,0.2-0.2V5c0-0.1-0.1-0.2-0.2-0.2
						h-0.9c-0.1,0-0.2,0.1-0.2,0.2v0.1c0,0.1,0.1,0.2,0.2,0.2H132.2z M132.2,6.4c0.1,0,0.2-0.1,0.2-0.2V6.1c0-0.1-0.1-0.2-0.2-0.2
						h-0.9c-0.1,0-0.2,0.1-0.2,0.2v0.1c0,0.1,0.1,0.2,0.2,0.2H132.2z M131.6,7c-0.1,0-0.1,0-0.1,0.1c0,0,0,0.1,0,0.1
						c0.2,0.2,0.3,0.3,0.5,0.5c0.1,0,0.1,0.1,0.2,0.1c0.1,0,0.1,0,0.2-0.1c0.2-0.2,0.4-0.4,0.5-0.5c0,0,0,0,0-0.1
						c0-0.1-0.1-0.1-0.1-0.1c-0.2,0-0.4,0-0.6,0H131.6z"/>
					<path class="st2" d="M142.9,4c0.6,0.6,0.9,1.4,0.9,2.2c0,1.3-0.7,2.3-1.8,2.9c-0.2,0.1-0.8,0.4-1,0.4c-0.2,0-0.6-0.6-0.6-0.8
						c0-0.1,0.1-0.1,0.2-0.1c1.2-0.3,2.1-1.1,2.1-2.3c0-1-0.5-1.8-1.4-2.2c-0.1,0-0.3-0.1-0.3-0.1c-0.2,0-0.2,0.2-0.2,0.4
						c-0.1,1.3-0.4,2.9-1.3,3.9c-0.3,0.4-0.7,0.7-1.2,0.7c-0.5,0-1-0.4-1.2-0.9c-0.2-0.4-0.3-0.9-0.3-1.3c0-2.1,1.6-3.8,3.7-3.8
						C141.4,3.1,142.3,3.4,142.9,4z M139.4,4.3c-1,0.5-1.6,1.4-1.6,2.6c0,0.3,0.1,1.2,0.6,1.2c0.4,0,1-1,1.2-1.9
						c0.1-0.4,0.3-1.3,0.3-1.8c0-0.1,0-0.2-0.1-0.2C139.6,4.2,139.5,4.2,139.4,4.3z"/>
					<path class="st2" d="M150.2,2.4c0.1,0,0.3,0.1,0.3,0.2c0,0-0.1,0.1-0.1,0.1c-0.1,0.1-0.1,0.1-0.2,0.3c0,0.1-0.2,0.8-0.2,0.8
						c0,0.1,0.1,0.1,0.1,0.1c0.2,0,0.9-0.3,1-0.3c0.1,0,0.1,0,0.2,0c0.2,0,0.2,0.5,0.2,0.7c0,0.2,0,0.3-0.2,0.3
						c-0.4,0.1-1,0.3-1.5,0.4c-0.3,0.1-0.3,0.1-0.4,0.4c-0.4,1.2-1.1,2.9-1.7,4c-0.1,0.2-0.2,0.3-0.3,0.3c-0.1,0-0.8-0.3-0.8-0.5
						c0-0.1,0.1-0.2,0.2-0.3c0.6-0.8,1.2-2.4,1.6-3.3c0-0.1,0.1-0.2,0.1-0.2c0-0.1-0.1-0.1-0.2-0.1c-0.1,0-0.5,0-0.8,0
						c-0.2,0-0.3,0-0.4-0.2c0-0.1-0.1-0.5-0.1-0.7c0-0.1,0-0.2,0.1-0.2c0.1,0,0.5,0,0.8,0c0.6,0,0.7,0,0.8-0.1
						c0.1-0.2,0.3-1.4,0.3-1.6c0-0.1,0-0.2,0.1-0.2C149.5,2.2,150,2.3,150.2,2.4z M150,8.2c0.4,0.4,1.1,0.5,1.6,0.5
						c0.5,0,0.8,0,1.3-0.2c0,0,0.1,0,0.1,0c0.2,0,0.2,0.2,0.2,0.6c0,0.2,0,0.4-0.1,0.4c-0.2,0.1-1.2,0.1-1.4,0.1
						c-0.6,0-1.4-0.1-1.9-0.4c-0.1-0.1-0.4-0.3-0.4-0.5c0-0.1,0.4-0.7,0.6-0.7C149.9,8.1,150,8.1,150,8.2z M151.1,5.3
						c0.5,0,1.4,0.1,1.8,0.3c0.1,0,0.1,0.1,0.1,0.2c0,0.1-0.1,0.5-0.2,0.6c0,0.1-0.1,0.1-0.2,0.1c-0.1,0-0.1,0-0.2,0
						c-0.4-0.2-0.9-0.2-1.4-0.2c-0.1,0-0.2,0-0.3,0c-0.2,0-0.2,0-0.2-0.2C150.6,5.2,150.7,5.3,151.1,5.3z"/>
					<path class="st2" d="M161.1,2.8c0.1,0,0.2,0.1,0.2,0.2c0,0.1,0,0.1-0.1,0.2c-0.1,0.2-0.1,0.4-0.2,0.6c0,0,0,0.1,0,0.1
						c0,0.2,0.2,0.2,0.3,0.2c1.2,0.3,2.1,1.2,2.1,2.5c0,1.5-1,2.4-2.3,3.1c-0.1,0.1-0.3,0.2-0.4,0.2c-0.2,0-0.6-0.5-0.6-0.7
						c0-0.1,0.1-0.1,0.3-0.2c1-0.3,2.1-1.1,2.1-2.3c0-1.2-1.2-1.6-1.4-1.6c-0.1,0-0.2,0.1-0.2,0.2c-0.2,0.9-0.6,2-1.2,2.7
						c-0.5,0.6-1.2,1.2-2,1.2c-0.8,0-1.1-0.9-1.1-1.6c0-0.9,0.3-1.6,0.8-2.2c0.1-0.1,0.1-0.1,0.1-0.2c0-0.1,0-0.1-0.1-0.2
						c-0.1-0.4-0.2-0.8-0.4-1.2c0,0,0-0.1,0-0.1c0-0.1,0.1-0.1,0.1-0.1c0.1,0,0.6-0.2,0.7-0.2c0.1,0,0.2,0.1,0.2,0.3
						c0,0.2,0.1,0.6,0.2,0.8c0,0.1,0.1,0.1,0.2,0.1c0.1,0,0.1,0,0.2,0c0.4-0.2,0.7-0.3,1.2-0.4c0.3,0,0.3-0.1,0.3-0.8
						c0-0.1,0-0.3,0-0.4c0-0.1,0-0.2,0.1-0.2C160.3,2.6,161,2.7,161.1,2.8z M158.5,7.4c-0.2-0.4-0.4-0.7-0.5-1.1
						c0,0-0.1-0.1-0.1-0.1c-0.1,0-0.4,0.7-0.4,1.2c0,0.2,0,0.7,0.3,0.7c0.3,0,0.8-0.3,0.8-0.5C158.6,7.5,158.6,7.5,158.5,7.4z
						 M158.6,5.4c0,0.1,0.3,0.8,0.4,1c0.1,0.2,0.1,0.3,0.2,0.3c0.2,0,0.7-1.5,0.7-1.7c0-0.1,0-0.1-0.1-0.1
						C159.6,4.8,158.6,5.1,158.6,5.4z"/>
					<path class="st2" d="M168.4,3.2c0.1,0,0.2,0.1,0.2,0.2c0,0.1,0,0.1-0.1,0.1c-0.2,0.1-0.2,0.2-0.3,0.4c-0.3,0.8-0.5,1.7-0.5,2.6
						c0,0.2,0,1.3,0.2,1.3c0.1,0,0.2-0.3,0.2-0.4c0.1-0.1,0.1-0.2,0.2-0.2c0.1,0,0.3,0.2,0.3,0.3c0,0.1-0.4,0.9-0.4,1.3
						c0,0.1,0,0.3,0,0.4c0,0,0,0.1,0,0.1c0,0.2-0.5,0.4-0.7,0.4c-0.2,0-0.3-0.2-0.4-0.4c-0.4-0.9-0.5-1.8-0.5-2.8c0-1.1,0.2-2,0.5-3
						c0-0.2,0.1-0.3,0.1-0.5c0-0.1,0-0.2,0.1-0.2C167.6,2.8,168.3,3.2,168.4,3.2z M169.6,7.5c0.4,0.5,0.8,0.6,1.4,0.6
						c0.7,0,1.3-0.1,2-0.3c0,0,0.1,0,0.2,0c0.1,0,0.2,0.2,0.2,0.7c0,0.1,0,0.3-0.1,0.3c-0.3,0.1-1.8,0.3-2.1,0.3
						c-1.5,0-2.1-0.8-2.1-0.9c0-0.1,0.3-0.8,0.5-0.8C169.5,7.4,169.5,7.5,169.6,7.5z M169.9,3.6c0.4,0.1,0.8,0.1,1.2,0.1
						c0.4,0,0.9-0.1,1.4-0.2c0,0,0.1,0,0.2,0c0.1,0,0.2,0.1,0.2,0.2c0,0.2,0,0.3,0,0.5c0,0.2,0,0.3-0.2,0.3
						c-0.4,0.1-1.1,0.1-1.5,0.1c-0.3,0-1.4-0.1-1.6-0.2c-0.1-0.1-0.1-0.3-0.1-0.4c0-0.4,0-0.6,0.2-0.6
						C169.7,3.6,169.8,3.6,169.9,3.6z"/>
				</g>
			</g>
			<g>
				<g>
					<g>
						<path class="st2" d="M23.3,65C23.3,65,23.3,65,23.3,65c-0.1,0-0.1,0-0.2,0C10.3,64.9-0.1,54.4,0,41.6c0.1-6.2,2.5-12,6.9-16.3
							c4.4-4.3,10.2-6.7,16.4-6.7c0.1,0,0.1,0,0.2,0c6.2,0.1,12,2.5,16.4,6.9c4.4,4.4,6.7,10.3,6.7,16.5c-0.1,6.2-2.5,12-6.9,16.3
							C35.2,62.6,29.4,65,23.3,65z"/>
						<path class="st2" d="M44,26.1c2.5,0,4.6-2,4.6-4.6c0-2.5-2-4.6-4.6-4.6c-2.5,0-4.6,2-4.6,4.6C39.5,24,41.5,26.1,44,26.1z"/>
						<path class="st2" d="M42.4,62.9c-1.1,0-2-0.9-2-2c0-1.1,0.9-2,2-2c1.1,0,2,0.9,2,2C44.4,62,43.5,62.9,42.4,62.9z"/>
					</g>
					<path d="M23.3,65C23.3,65,23.3,65,23.3,65c-0.1,0-0.1,0-0.2,0C10.3,64.9-0.1,54.4,0,41.6c0.1-6.2,2.5-12,6.9-16.3
						c4.4-4.3,10.2-6.7,16.4-6.7c0.1,0,0.1,0,0.2,0c6.2,0.1,12,2.5,16.4,6.9c4.4,4.4,6.7,10.3,6.7,16.5c-0.1,6.2-2.5,12-6.9,16.3
						C35.2,62.6,29.4,65,23.3,65z M23.3,18.6c-6.1,0-11.9,2.4-16.3,6.7c-4.4,4.3-6.8,10.1-6.8,16.2C0,54.3,10.3,64.8,23.1,64.9
						c0.1,0,0.1,0,0.2,0c6.1,0,11.9-2.4,16.3-6.7c4.4-4.3,6.8-10.1,6.8-16.2c0.1-6.2-2.3-12-6.6-16.4c-4.3-4.4-10.1-6.9-16.3-6.9
						C23.4,18.6,23.3,18.6,23.3,18.6z"/>
					<g>
						<defs>
							<path id="SVGID_2_" d="M44,26.1c2.5,0,4.6-2,4.6-4.6c0-2.5-2-4.6-4.6-4.6c-2.5,0-4.6,2-4.6,4.6C39.5,24,41.5,26.1,44,26.1z"
								/>
						</defs>
						<clipPath id="SVGID_3_">
							<use xlink:href="#SVGID_2_"  style="overflow:visible;"/>
						</clipPath>
						<rect x="37.9" y="17.1" class="st3" width="11.1" height="0"/>
						<rect x="37.9" y="17.7" class="st3" width="11.1" height="0.1"/>
						<rect x="37.9" y="18.4" class="st3" width="11.1" height="0.1"/>
						<rect x="37.9" y="19" class="st3" width="11.1" height="0.2"/>
						<rect x="37.9" y="19.7" class="st3" width="11.1" height="0.2"/>
						<rect x="37.9" y="20.3" class="st3" width="11.1" height="0.3"/>
						<rect x="37.9" y="20.9" class="st3" width="11.1" height="0.3"/>
						<rect x="37.9" y="21.6" class="st3" width="11.1" height="0.3"/>
						<rect x="37.9" y="22.2" class="st3" width="11.1" height="0.4"/>
						<rect x="37.9" y="22.9" class="st3" width="11.1" height="0.4"/>
						<rect x="37.9" y="23.5" class="st3" width="11.1" height="0.5"/>
						<rect x="37.9" y="24.2" class="st3" width="11.1" height="0.5"/>
						<rect x="37.9" y="24.8" class="st3" width="11.1" height="0.6"/>
						<rect x="37.9" y="25.5" class="st3" width="11.1" height="0.6"/>
					</g>
					<g>
						<rect x="41.4" y="20.6" class="st2" width="5.2" height="1.9"/>
						<rect x="43.1" y="18.9" class="st2" width="1.9" height="5.2"/>
					</g>
					<path d="M43.6,61.6c0,0.2-0.1,0.6-0.5,0.6c-0.2,0-0.5-0.1-0.5-0.6c0-0.4,0-0.5-0.1-0.6c-0.1-0.1-0.1-0.1-0.2-0.1H42v0.9
						C42,62,42,62,42.3,62v0.1h-1.1l0-0.1c0.2,0,0.3,0,0.3-0.3v-1.8c0-0.2-0.1-0.3-0.3-0.3v-0.1h1.3c0.5,0,0.8,0.3,0.8,0.6
						c0,0.3-0.3,0.5-0.4,0.6l-0.4,0.1c0.2,0.1,0.3,0.1,0.3,0.1c0.2,0.2,0.3,0.4,0.3,0.6c0,0.1,0.1,0.4,0.2,0.4
						C43.4,61.8,43.4,61.8,43.6,61.6L43.6,61.6 M42,60.7h0.3c0.4,0,0.5-0.3,0.5-0.5c0-0.4-0.1-0.6-0.5-0.6c-0.3,0-0.3,0.1-0.3,0.3
						V60.7z"/>
					<path d="M42.4,62.9c-1.1,0-2-0.9-2-2c0-1.1,0.9-2,2-2c1.1,0,2,0.9,2,2C44.4,62,43.5,62.9,42.4,62.9z M42.4,59
						c-1,0-1.9,0.8-1.9,1.9c0,1,0.8,1.9,1.9,1.9c1,0,1.9-0.8,1.9-1.9C44.2,59.8,43.4,59,42.4,59z"/>
					<g>
						<g>
							<path d="M2.9,50.1l-0.5-1.3l0.1-0.1l0.1,0.2c0,0.1,0.1,0.2,0.1,0.2c0,0,0.1,0,0.2,0L5,48.3c0.1,0,0.1-0.1,0.1-0.1
								c0,0,0-0.1,0-0.2L5,47.8l0.1-0.1L5.6,49l-0.1,0.1l-0.1-0.2c0-0.1-0.1-0.1-0.1-0.1c0,0-0.1,0-0.2,0l-2.1,0.8
								c-0.1,0-0.1,0.1-0.1,0.1c0,0,0,0.1,0,0.2L3,50L2.9,50.1z"/>
							<path d="M2.2,48.2L2,47.5l1.8-2.3l-1.6,0.4c-0.2,0-0.3,0.1-0.3,0.2c-0.1,0.1-0.1,0.2,0,0.3l-0.1,0l-0.2-1l0.1,0
								c0,0.1,0.1,0.2,0.1,0.2c0,0,0.1,0.1,0.2,0.1c0.1,0,0.2,0,0.3,0l2.3-0.5l0,0.2l-1.9,2.4L4.3,47c0.2,0,0.3-0.1,0.3-0.2
								c0.1-0.1,0.1-0.2,0-0.4l0.1,0L5,47.5l-0.1,0c0-0.1-0.1-0.2-0.2-0.3c-0.1-0.1-0.2-0.1-0.3,0l-1.9,0.5l0,0
								c-0.1,0.1-0.1,0.1-0.1,0.2c0,0,0,0.1,0,0.2l0,0.1L2.2,48.2z"/>
							<path d="M1.4,44.6l-0.2-2.4L2.3,42l0,0.1c-0.6,0.1-1,0.4-0.9,0.8c0,0.1,0,0.1,0.1,0.2c0,0,0.1,0,0.1,0L3.9,43
								c0,0,0.1,0,0.1-0.1c0,0,0-0.1,0-0.1l0-0.3l0.2,0l0.1,1.4l-0.2,0l0-0.3c0,0,0-0.1,0-0.1c0,0-0.1,0-0.1,0l-2.4,0.2
								c-0.1,0-0.1,0-0.1,0.1c0,0,0,0.1,0,0.2c0,0.2,0.1,0.3,0.3,0.5c0.2,0.1,0.4,0.2,0.7,0.2l0,0.2L1.4,44.6z"/>
							<path d="M1.2,41.4L1.3,39l1,0l0,0.1c-0.3,0-0.5,0.1-0.7,0.2c-0.1,0.1-0.2,0.3-0.2,0.4l0,0.6c0,0,0,0.1,0,0.1c0,0,0.1,0,0.1,0
								l1,0.1l0-0.3c0-0.1,0-0.3-0.1-0.3C2.4,40,2.2,39.9,2,39.9l0-0.1l1.4,0.1l0,0.1c-0.2,0-0.4,0-0.5,0.1
								c-0.1,0.1-0.2,0.2-0.2,0.3l0,0.2l1.2,0.1c0,0,0.1,0,0.1,0c0,0,0-0.1,0-0.1l0-0.5c0-0.5-0.3-0.8-0.9-0.9l0-0.1l1.1,0.1
								l-0.2,2.5l-0.2,0l0-0.2c0-0.1,0-0.1,0-0.2c0,0-0.1-0.1-0.1-0.1L1.5,41c-0.1,0-0.1,0-0.1,0c0,0,0,0.1,0,0.1l0,0.2L1.2,41.4z"
								/>
							<path d="M1.4,38.3l0.3-1.5c0.1-0.3,0.2-0.5,0.4-0.6C2.3,36,2.5,36,2.7,36c0.1,0,0.2,0.1,0.3,0.2c0.1,0.1,0.1,0.2,0.2,0.3
								c0,0.1,0,0.3,0,0.6c0.1-0.2,0.2-0.3,0.2-0.4c0.1-0.1,0.1-0.1,0.2-0.1c0.1,0,0.3,0,0.5,0c0.2,0,0.3,0,0.4,0
								c0.1,0,0.1-0.1,0.1-0.1c0,0,0-0.1-0.1-0.1c-0.1-0.1-0.1-0.1-0.3-0.1l0-0.1c0.4,0.1,0.6,0.3,0.5,0.6c0,0.1-0.1,0.2-0.1,0.2
								C4.7,37,4.6,37,4.5,37c-0.1,0-0.3,0-0.6,0c-0.2,0-0.3,0-0.4,0c-0.1,0-0.2,0.1-0.2,0.2c-0.1,0.1-0.1,0.2-0.1,0.3l-0.1,0.2
								L4.2,38c0,0,0.1,0,0.1,0c0,0,0.1-0.1,0.1-0.1l0.1-0.3l0.1,0l-0.3,1.3l-0.1,0l0.1-0.3c0-0.1,0-0.1,0-0.1c0,0,0-0.1-0.1-0.1
								l-2.3-0.5c0,0-0.1,0-0.1,0c0,0-0.1,0.1-0.1,0.1l-0.1,0.3L1.4,38.3z M3,37.7L3,37.3c0.1-0.2,0.1-0.4,0-0.6
								c-0.1-0.2-0.2-0.3-0.4-0.3c-0.1,0-0.3,0-0.4,0c-0.1,0-0.2,0.1-0.2,0.2c-0.1,0.1-0.1,0.2-0.2,0.5c0,0.2,0,0.3,0,0.3
								c0,0,0,0.1,0.1,0.1L3,37.7z"/>
							<path d="M2.3,34.9l0.3-0.7l2.8-0.8l-1.5-0.6c-0.2-0.1-0.3-0.1-0.4,0c-0.1,0-0.2,0.1-0.2,0.3L3.1,33l0.4-1l0.1,0.1
								c0,0.1-0.1,0.2-0.1,0.2c0,0.1,0,0.1,0.1,0.2c0.1,0.1,0.1,0.1,0.2,0.2L6,33.6l-0.1,0.2L3,34.6l1.6,0.7c0.1,0.1,0.3,0.1,0.4,0
								c0.1,0,0.2-0.1,0.3-0.3L5.4,35L5,36.1L4.8,36c0.1-0.1,0.1-0.3,0-0.4c0-0.1-0.1-0.2-0.2-0.2l-1.8-0.8l0,0
								c-0.1,0-0.1,0.1-0.2,0.1c0,0-0.1,0.1-0.1,0.1L2.4,35L2.3,34.9z"/>
							<path d="M4.4,30.4l0.1-0.1l2.8,0.5c0.1,0,0.2,0,0.3-0.1l0-0.1l0.1,0.1l-0.6,1L7,31.6l0-0.1c0.1-0.1,0.1-0.2,0.1-0.2
								c0,0,0-0.1,0-0.1c0,0,0,0-0.1,0L6.4,31l-0.6,1L6,32.3c0.1,0.1,0.1,0.1,0.2,0.2c0.1,0,0.1,0,0.2,0c0.1,0,0.1-0.1,0.2-0.2
								l0.1-0.1l0.1,0.1l-0.6,0.9L6,33.2c0.1-0.1,0.1-0.2,0.1-0.3c0-0.1-0.1-0.2-0.1-0.3L4.4,30.4z M4.8,30.8l0.8,1.1L6.2,31
								L4.8,30.8z"/>
							<path d="M5.4,28.9L7,27.1l0.9,0.7l-0.1,0.1c-0.6-0.3-1-0.4-1.2-0.1c0,0.1-0.1,0.1-0.1,0.1c0,0,0,0.1,0.1,0.1l1.8,1.5
								c0,0,0.1,0,0.1,0c0,0,0.1,0,0.1-0.1l0.2-0.2l0.1,0.1L8,30.4l-0.1-0.1l0.2-0.3c0,0,0-0.1,0-0.1c0,0,0-0.1,0-0.1l-1.8-1.5
								c0,0-0.1,0-0.1,0c0,0-0.1,0-0.1,0.1c-0.1,0.1-0.2,0.3-0.1,0.5c0,0.2,0.2,0.4,0.4,0.6l-0.1,0.1L5.4,28.9z"/>
							<path d="M7.4,26.7l1-0.9l0.1,0.1L8.3,26c-0.1,0.1-0.1,0.1-0.1,0.2c0,0,0,0.1,0.1,0.1l1.5,1.6C9.9,28,9.9,28,9.9,28
								c0,0,0.1,0,0.2-0.1l0.2-0.2l0.1,0.1l-1,0.9l-0.1-0.1l0.2-0.2c0.1-0.1,0.1-0.1,0.1-0.1c0,0,0-0.1-0.1-0.2L8,26.6
								c-0.1-0.1-0.1-0.1-0.1-0.1c0,0-0.1,0-0.2,0.1l-0.2,0.2L7.4,26.7z"/>
							<path d="M9.9,24.4c0.2-0.1,0.4-0.2,0.7-0.3c0.3,0,0.5,0,0.7,0.1c0.2,0.1,0.4,0.3,0.6,0.5c0.2,0.2,0.3,0.5,0.3,0.7
								c0,0.3,0,0.5-0.1,0.7c-0.1,0.2-0.2,0.4-0.4,0.6c-0.2,0.1-0.4,0.2-0.7,0.2c-0.2,0-0.5,0-0.7-0.1c-0.2-0.1-0.5-0.3-0.6-0.5
								c-0.2-0.2-0.3-0.5-0.3-0.7c0-0.3,0-0.5,0.1-0.7C9.6,24.8,9.7,24.6,9.9,24.4z M10,24.5c-0.2,0.2-0.3,0.4-0.3,0.6
								c0,0.3,0.1,0.6,0.4,1c0.3,0.4,0.6,0.7,0.8,0.7c0.3,0.1,0.5,0,0.7-0.1c0.1-0.1,0.2-0.2,0.3-0.4c0.1-0.2,0-0.3,0-0.5
								c-0.1-0.2-0.2-0.4-0.4-0.7c-0.2-0.3-0.4-0.5-0.6-0.6c-0.2-0.1-0.3-0.2-0.5-0.2C10.3,24.4,10.2,24.4,10,24.5z"/>
							<path d="M11.7,23.2l0.6-0.3l2.7,1.2l-0.8-1.5c-0.1-0.2-0.2-0.2-0.3-0.3c-0.1,0-0.2,0-0.3,0l-0.1-0.1l0.9-0.5l0.1,0.1
								c-0.1,0-0.2,0.1-0.2,0.1c0,0-0.1,0.1-0.1,0.2c0,0.1,0,0.2,0.1,0.3l1,2.1l-0.2,0.1l-2.7-1.3l0.8,1.6c0.1,0.1,0.2,0.2,0.3,0.3
								c0.1,0,0.2,0,0.4-0.1l0.1,0.1l-1,0.5L13,25.7c0.1-0.1,0.2-0.2,0.2-0.3c0-0.1,0-0.2,0-0.3l-0.9-1.8l-0.1,0
								c-0.1,0-0.2-0.1-0.2-0.1c0,0-0.1,0-0.2,0l-0.1,0.1L11.7,23.2z"/>
							<path d="M16.3,21.2l0.1,0l1.8,2.2c0.1,0.1,0.2,0.1,0.3,0.1l0.1,0l0,0.1l-1.1,0.4l0-0.1l0.1,0c0.1,0,0.2-0.1,0.2-0.1
								c0,0,0-0.1,0-0.1c0,0,0,0,0-0.1L17.4,23l-1.1,0.4l0,0.4c0,0.1,0,0.2,0,0.2c0,0.1,0.1,0.1,0.1,0.1c0.1,0,0.2,0,0.3,0l0.1,0
								l0,0.1l-1,0.3l0-0.1c0.1,0,0.2-0.1,0.2-0.2c0-0.1,0.1-0.2,0.1-0.3L16.3,21.2z M16.4,21.7l-0.1,1.4l1-0.3L16.4,21.7z"/>
							<path d="M18.2,20.7l1.4-0.2l0,0.1l-0.3,0.1c-0.1,0-0.1,0-0.1,0.1c0,0,0,0.1,0,0.1l0.4,2.3c0,0.1,0,0.1,0.1,0.1
								c0,0,0.1,0,0.2,0l0.4-0.1c0.2,0,0.4-0.1,0.5-0.3c0.1-0.2,0.2-0.4,0.2-0.8l0.1,0l0.1,1.1l-2.4,0.4l0-0.1l0.2,0
								c0.1,0,0.1,0,0.2-0.1c0,0,0-0.1,0-0.2l-0.4-2.3c0,0,0-0.1-0.1-0.1c0,0-0.1,0-0.1,0l-0.3,0L18.2,20.7z"/>
							<path d="M22.5,20.1l1.3,0.1l0,0.2l-0.2,0c-0.1,0-0.1,0-0.2,0c0,0,0,0.1,0,0.2l0,0.9l1.4,0.1l0-0.9c0-0.1,0-0.2,0-0.2
								c0,0-0.1,0-0.2,0l-0.2,0l0-0.2l1.3,0.1l0,0.2l-0.2,0c-0.1,0-0.1,0-0.1,0c0,0,0,0-0.1,0.1c0,0,0,0.1,0,0.2L25,22.8
								c0,0.1,0,0.2,0,0.2c0,0,0.1,0.1,0.2,0.1l0.2,0l0,0.2l-1.3-0.1l0-0.2l0.2,0c0.1,0,0.1,0,0.2-0.1c0,0,0-0.1,0-0.2l0-1l-1.4-0.1
								l0,1c0,0.1,0,0.2,0,0.2c0,0,0.1,0.1,0.2,0.1l0.2,0l0,0.2l-1.3-0.1l0-0.1l0.2,0c0,0,0.1,0,0.1,0c0,0,0,0,0.1-0.1
								c0,0,0-0.1,0-0.2l0.1-2.1c0-0.1,0-0.2,0-0.2c0,0-0.1,0-0.2,0l-0.2,0L22.5,20.1z"/>
							<path d="M26.4,20.4l2.3,0.5l-0.1,1l-0.1,0c0-0.3,0-0.5-0.1-0.7c-0.1-0.1-0.2-0.2-0.4-0.3l-0.6-0.1c0,0-0.1,0-0.1,0
								c0,0,0,0.1-0.1,0.1l-0.2,1l0.3,0c0.1,0,0.3,0,0.4-0.1c0.1-0.1,0.2-0.2,0.2-0.4l0.1,0l-0.3,1.3l-0.1,0c0-0.2,0-0.4,0-0.5
								c-0.1-0.1-0.2-0.2-0.3-0.2l-0.2,0l-0.2,1.1c0,0,0,0.1,0,0.1c0,0,0.1,0,0.1,0.1l0.5,0.1c0.5,0.1,0.8-0.1,1-0.7l0.1,0l-0.3,1.1
								l-2.4-0.5l0-0.1l0.2,0c0.1,0,0.1,0,0.2,0c0,0,0.1-0.1,0.1-0.1l0.5-2.3c0-0.1,0-0.1,0-0.1c0,0-0.1-0.1-0.1-0.1l-0.2,0
								L26.4,20.4z"/>
							<path d="M30.7,21.5l0.1,0l0.1,2.9c0,0.1,0.1,0.2,0.2,0.2l0.1,0l-0.1,0.1L30,24.4l0.1-0.1l0.1,0c0.1,0,0.2,0.1,0.3,0.1
								c0,0,0.1,0,0.1-0.1c0,0,0,0,0-0.1l0-0.7l-1.1-0.4l-0.3,0.3c-0.1,0.1-0.1,0.1-0.1,0.2c0,0.1,0,0.1,0,0.2
								c0,0.1,0.1,0.1,0.2,0.2l0.1,0l-0.1,0.1l-1-0.4l0.1-0.1c0.1,0,0.2,0,0.3,0c0.1,0,0.2-0.1,0.3-0.2L30.7,21.5z M30.5,22L29.5,23
								l1,0.4L30.5,22z"/>
							<path d="M32.5,22.2l1.2,0.6L33.7,23l-0.3-0.2c0,0-0.1,0-0.1,0c0,0-0.1,0-0.1,0.1l-1.1,2c0,0,0,0.1,0,0.1c0,0,0.1,0.1,0.2,0.1
								l0.4,0.2c0.2,0.1,0.4,0.1,0.6,0.1c0.2-0.1,0.4-0.2,0.6-0.5L34,25l-0.6,1l-2.2-1.2l0.1-0.1l0.2,0.1c0.1,0,0.1,0.1,0.2,0
								c0,0,0.1,0,0.1-0.1l1.1-2c0,0,0-0.1,0-0.1c0,0,0-0.1-0.1-0.1l-0.3-0.1L32.5,22.2z"/>
							<path d="M35.1,23.6l2,1.4l-0.6,0.9l-0.1-0.1c0.3-0.6,0.3-1,0-1.2c-0.1,0-0.1-0.1-0.2-0.1c0,0-0.1,0-0.1,0.1l-1.3,1.9
								c0,0,0,0.1,0,0.1c0,0,0,0.1,0.1,0.1L35,27l-0.1,0.1l-1.1-0.8l0.1-0.1l0.3,0.2c0,0,0.1,0,0.1,0c0,0,0.1,0,0.1-0.1l1.4-1.9
								c0,0,0-0.1,0-0.1c0,0,0-0.1-0.1-0.1c-0.2-0.1-0.3-0.1-0.6-0.1c-0.2,0.1-0.4,0.2-0.6,0.4l-0.1-0.1L35.1,23.6z"/>
							<path d="M37.6,25.4l0.9,0.9l-0.1,0.1l-0.2-0.2c-0.1-0.1-0.1-0.1-0.1-0.1c0,0-0.1,0-0.2,0.1l-0.6,0.7l1,0.9l0.6-0.7
								C39,27.1,39,27.1,39,27c0,0,0-0.1-0.1-0.1l-0.2-0.2l0.1-0.1l0.9,0.9l-0.1,0.1l-0.2-0.2c0,0-0.1-0.1-0.1-0.1c0,0-0.1,0-0.1,0
								c0,0-0.1,0-0.1,0.1L37.7,29c-0.1,0.1-0.1,0.1-0.1,0.2c0,0.1,0,0.1,0.1,0.2l0.1,0.1l-0.1,0.1l-0.9-0.9l0.1-0.1l0.2,0.2
								c0.1,0.1,0.1,0.1,0.2,0.1c0,0,0.1,0,0.2-0.1l0.7-0.7l-1-0.9l-0.7,0.7c-0.1,0.1-0.1,0.1-0.1,0.2c0,0.1,0,0.1,0.1,0.2l0.2,0.2
								l-0.1,0.1l-0.9-0.9l0.1-0.1l0.2,0.2c0,0,0.1,0,0.1,0.1c0,0,0.1,0,0.1,0c0,0,0.1,0,0.1-0.1l1.5-1.5c0.1-0.1,0.1-0.1,0.1-0.2
								c0,0,0-0.1-0.1-0.1l-0.2-0.1L37.6,25.4z"/>
							<path d="M40.7,30.8c-0.1,0.3-0.3,0.5-0.3,0.7c-0.1,0.1-0.1,0.3-0.2,0.5c0.3,0,0.6,0,0.7-0.1c0.1,0,0.1-0.1,0.1-0.2
								c0-0.1,0-0.1-0.1-0.2l-0.1-0.1l0.1-0.1l0.6,0.9l-0.1,0.1l0-0.1c0-0.1-0.1-0.1-0.1-0.1c0,0-0.1,0-0.2-0.1c-0.1,0-0.2,0-0.3,0
								c-0.3,0-0.5,0-0.7,0c-0.1,0.3,0,0.4,0,0.6c0,0.1,0.1,0.1,0.2,0.1c0.1,0,0.2,0,0.3-0.1l0.1,0.1c-0.2,0.1-0.4,0.2-0.6,0.2
								c-0.2,0-0.3-0.1-0.4-0.2c-0.1-0.1-0.1-0.2-0.1-0.3c0-0.1,0-0.2,0-0.4c-0.2-0.1-0.3-0.1-0.4-0.2c-0.1-0.1-0.2-0.2-0.3-0.3
								c-0.1-0.2-0.2-0.4-0.1-0.7c0-0.2,0.2-0.4,0.4-0.5c0.2-0.1,0.3-0.1,0.5-0.1c0.2,0,0.4,0.1,0.7,0.2c0.1-0.2,0.3-0.4,0.4-0.5
								c0.2-0.1,0.3-0.1,0.5-0.1c0.2,0,0.3,0.2,0.4,0.3c0.1,0.2,0.1,0.3,0.1,0.5c0,0.1-0.1,0.3-0.2,0.3c-0.1,0.1-0.3,0.1-0.4,0.1
								C41.2,31.1,40.9,31,40.7,30.8z M40.4,30.6c-0.3-0.2-0.5-0.2-0.7-0.1c-0.1,0.1-0.3,0.2-0.3,0.5c-0.1,0.2-0.1,0.4,0,0.6
								c0.1,0.1,0.2,0.2,0.4,0.3c0.1-0.2,0.1-0.4,0.2-0.5C40.1,31.2,40.2,30.9,40.4,30.6z M40.8,30.7c0.2,0.1,0.3,0.2,0.4,0.2
								c0.1,0,0.2,0,0.3-0.1c0.1-0.1,0.2-0.1,0.2-0.2c0-0.1,0-0.2,0-0.3c-0.1-0.1-0.1-0.1-0.2-0.2c-0.1,0-0.2,0-0.3,0.1
								C41.1,30.2,40.9,30.4,40.8,30.7z"/>
							<path d="M44.1,35.6l0.3,0l0,0.1l-1.1,0.5l0-0.1c0.3-0.2,0.5-0.4,0.6-0.6c0.1-0.2,0.1-0.4,0.1-0.7c-0.1-0.2-0.3-0.4-0.5-0.5
								c-0.3-0.1-0.6,0-1.1,0.2c-0.4,0.2-0.7,0.4-0.9,0.6c-0.1,0.2-0.1,0.4-0.1,0.7c0.1,0.2,0.2,0.4,0.4,0.5
								c0.2,0.1,0.5,0.1,0.8,0.1l0,0.1c-0.3,0.1-0.6,0.1-0.9-0.1c-0.2-0.1-0.4-0.3-0.5-0.6c-0.1-0.2-0.1-0.5-0.1-0.7
								c0-0.2,0.2-0.5,0.3-0.7c0.2-0.2,0.4-0.3,0.6-0.4c0.3-0.1,0.6-0.1,0.8-0.1c0.3,0,0.5,0.1,0.7,0.3c0.2,0.1,0.3,0.3,0.4,0.5
								c0,0.1,0.1,0.2,0.1,0.4C44.2,35.2,44.2,35.4,44.1,35.6z"/>
							<path d="M44.7,36.5l0.3,1.3l-0.1,0l-0.1-0.3c0-0.1,0-0.1-0.1-0.1c0,0-0.1,0-0.1,0l-2.3,0.5c-0.1,0-0.1,0-0.1,0.1
								c0,0,0,0.1,0,0.2l0.1,0.4c0,0.2,0.2,0.4,0.3,0.5c0.2,0.1,0.4,0.2,0.8,0.1l0,0.1l-1.1,0.2l-0.5-2.4l0.1,0l0.1,0.2
								c0,0.1,0,0.1,0.1,0.2c0,0,0.1,0,0.2,0l2.2-0.5c0,0,0.1,0,0.1-0.1c0,0,0-0.1,0-0.1l-0.1-0.3L44.7,36.5z"/>
							<path d="M45.2,39.5l0.1,1.4l-0.2,0l0-0.2c0-0.1,0-0.2-0.1-0.2c0,0-0.1,0-0.2,0l-2.2,0.2c-0.1,0-0.1,0-0.2,0.1
								c0,0,0,0.1,0,0.2l0,0.3l-0.2,0l-0.1-1.4l0.2,0l0,0.3c0,0.1,0,0.1,0.1,0.2c0,0,0.1,0,0.2,0l2.2-0.2c0.1,0,0.1,0,0.2-0.1
								c0,0,0-0.1,0-0.2l0-0.2L45.2,39.5z"/>
							<path d="M45.4,41.4l0,0.7L43,43.9l1.7,0.1c0.2,0,0.3,0,0.4-0.1c0.1-0.1,0.1-0.2,0.1-0.3l0.2,0l0,1l-0.2,0c0-0.1,0-0.2,0-0.2
								c0-0.1-0.1-0.1-0.2-0.1c-0.1,0-0.2-0.1-0.2-0.1L42.4,44l0-0.2l2.5-1.8L43.1,42c-0.2,0-0.3,0-0.4,0.1
								c-0.1,0.1-0.1,0.2-0.1,0.4l-0.2,0l0-1.1l0.2,0c0,0.1,0,0.3,0.1,0.4c0.1,0.1,0.2,0.1,0.3,0.1l2,0.1l0,0
								c0.1-0.1,0.1-0.1,0.1-0.1c0,0,0-0.1,0-0.2l0-0.1L45.4,41.4z"/>
							<path d="M45.2,45.1L45,46.4l-0.1,0l0-0.2c0-0.1,0-0.2,0-0.2c0,0-0.1-0.1-0.2-0.1l-2.2-0.4c-0.1,0-0.1,0-0.2,0
								c0,0-0.1,0.1-0.1,0.2l0,0.3l-0.1,0l0.2-1.3l0.1,0l0,0.2c0,0.1,0,0.1,0,0.2c0,0,0.1,0.1,0.2,0.1l2.2,0.4c0.1,0,0.1,0,0.2,0
								c0,0,0.1-0.1,0.1-0.2l0-0.2L45.2,45.1z"/>
							<path d="M44,49.1l0.2,0.2l0,0.1l-1.1-0.3l0-0.1c0.3,0,0.6,0,0.8-0.1c0.2-0.1,0.4-0.3,0.5-0.5c0.1-0.2,0-0.5-0.1-0.7
								c-0.2-0.2-0.5-0.4-1-0.5c-0.4-0.1-0.8-0.1-1,0c-0.2,0.1-0.4,0.3-0.5,0.5c-0.1,0.2-0.1,0.4,0,0.6c0.1,0.2,0.3,0.4,0.6,0.5
								l0,0.1c-0.3-0.1-0.5-0.3-0.7-0.6c-0.1-0.2-0.1-0.5,0-0.8c0.1-0.2,0.2-0.4,0.4-0.6c0.2-0.2,0.4-0.3,0.7-0.3
								c0.3-0.1,0.5,0,0.8,0c0.3,0.1,0.5,0.2,0.7,0.4c0.2,0.2,0.3,0.4,0.4,0.6c0.1,0.2,0.1,0.5,0,0.7c0,0.1-0.1,0.2-0.2,0.3
								C44.3,48.9,44.1,49,44,49.1z"/>
						</g>
						<g>
							<path d="M44.1,50.9C44.1,50.9,44.1,50.9,44.1,50.9l-3.8-1.6c0,0,0,0,0-0.1c1-2.3,1.5-4.8,1.5-7.3c0-10.2-8.3-18.6-18.6-18.6
								C13,23.4,4.6,31.7,4.6,41.9c0,2.5,0.5,5,1.5,7.3c0,0,0,0.1,0,0.1l-3.8,1.6c0,0-0.1,0-0.1,0C1,48,0.4,45,0.4,41.9
								c0-12.6,10.2-22.8,22.8-22.8C35.8,19.1,46,29.4,46,41.9C46,45,45.4,48,44.1,50.9C44.2,50.9,44.1,50.9,44.1,50.9z M40.4,49.2
								l3.6,1.6c1.2-2.8,1.8-5.8,1.8-8.8c0-12.5-10.2-22.7-22.7-22.7c-12.5,0-22.7,10.2-22.7,22.7c0,3,0.6,6,1.8,8.8L6,49.2
								c-1-2.3-1.5-4.8-1.5-7.3c0-10.3,8.4-18.7,18.7-18.7c10.3,0,18.7,8.4,18.7,18.7C41.9,44.4,41.4,46.9,40.4,49.2z"/>
						</g>
					</g>
					<g>
						<path d="M5,51.2C5,51.2,5,51.2,5,51.2c-0.5,0.2-0.9,0.4-1.4,0.6c-0.1,0-0.1,0.1,0,0.1c0,0,0,0.1,0,0.1c0,0,0,0-0.1,0
							c-0.1-0.1-0.1-0.3-0.2-0.4c0,0,0,0,0.1,0c0,0,0,0.1,0,0.1c0,0.1,0.1,0.1,0.1,0.1c0.6-0.3,1.2-0.5,1.8-0.8c0,0,0,0,0,0.1
							c-0.4,0.5-0.9,1.1-1.3,1.6c0,0,0,0,0,0c0.5-0.2,1-0.5,1.6-0.7c0.1,0,0.1-0.1,0-0.1c0,0,0-0.1,0-0.1c0,0,0,0,0.1,0
							C5.9,51.8,5.9,52,6,52.1c0,0,0,0-0.1,0c0,0,0-0.1,0-0.1C5.9,52,5.8,52,5.8,52c-0.5,0.2-1.1,0.5-1.6,0.7c-0.1,0-0.1,0.1,0,0.1
							c0,0,0,0,0,0.1c0,0,0,0-0.1,0c-0.1-0.1-0.1-0.2-0.2-0.3C4.3,52.2,4.7,51.7,5,51.2z"/>
						<path d="M5.8,53.3c-0.1,0.2-0.2,0.4-0.4,0.4c-0.2,0.1-0.4,0.1-0.6,0.1c-0.2,0-0.3-0.1-0.4-0.3c-0.1-0.1-0.1-0.3-0.1-0.4
							c0.1-0.2,0.2-0.4,0.4-0.4c0.2-0.1,0.4-0.1,0.6-0.1c0.2,0,0.3,0.1,0.4,0.3C5.8,53,5.9,53.2,5.8,53.3z M5.4,52.8
							c-0.1,0-0.3,0-0.5,0.1c-0.2,0.1-0.3,0.2-0.4,0.4c0,0.1,0,0.2,0,0.3c0.1,0.1,0.1,0.2,0.2,0.2c0.1,0,0.3,0,0.5-0.1
							c0.2-0.1,0.3-0.2,0.4-0.4c0-0.1,0-0.2,0-0.3C5.6,52.8,5.5,52.8,5.4,52.8z"/>
						<path d="M5.5,54.9c0.1,0.2,0.1,0.4-0.1,0.5c-0.1,0-0.1,0-0.2,0c-0.1,0-0.3-0.1-0.4-0.4c-0.1-0.2-0.2-0.3-0.1-0.5
							c0-0.1,0.1-0.1,0.1-0.2c0.1-0.1,0.2,0,0.4,0.1c0-0.1,0-0.2,0.1-0.2c0,0,0.1,0,0.3,0c0-0.2,0.1-0.3,0.2-0.3
							c0.1-0.1,0.2-0.1,0.4-0.1c0.1,0,0.2,0.1,0.3,0.2c0.1,0.1,0.1,0.2,0.1,0.3c0.1,0.1,0.2,0.1,0.2,0.1c0,0,0,0.1,0,0.1
							c0,0,0,0.1-0.1,0.1c-0.1,0-0.1,0-0.1,0c0,0,0-0.1,0-0.1c0,0,0-0.1-0.1-0.1c0,0.1-0.1,0.2-0.2,0.2c-0.1,0.1-0.2,0.1-0.3,0
							c-0.1,0-0.2-0.1-0.3-0.2c-0.1-0.1-0.1-0.2-0.1-0.2c-0.1,0-0.1,0-0.2,0c-0.1,0-0.1,0.1,0,0.1C5.4,54.6,5.4,54.8,5.5,54.9z
							 M5.1,54.5c-0.1-0.1-0.2-0.1-0.3,0c0,0-0.1,0.1-0.1,0.1c0,0.1,0,0.2,0.1,0.4c0.1,0.1,0.2,0.2,0.3,0.2c0,0,0.1,0,0.1,0
							c0.1-0.1,0.1-0.1,0.1-0.2C5.3,54.9,5.2,54.7,5.1,54.5z M6,54c-0.1,0-0.2,0-0.3,0.1c-0.1,0.1-0.1,0.1-0.2,0.2
							c0,0.1,0,0.2,0,0.2c0,0.1,0.1,0.1,0.2,0.1c0.1,0,0.2,0,0.3,0c0.1-0.1,0.2-0.1,0.2-0.2c0-0.1,0-0.2,0-0.2C6.2,54,6.1,54,6,54z"
							/>
						<path d="M6.1,55.7c0,0.1,0,0.1,0.1,0.2c0.1,0.1,0.2,0.2,0.3,0.2c0.1,0,0.1,0,0.2,0c0.2-0.2,0.4-0.3,0.6-0.5
							c0.1,0,0.1-0.1,0-0.2c0,0,0,0,0,0c0,0,0,0,0.1,0c0,0,0,0,0,0c0.1,0.1,0.1,0.1,0.2,0.1c0,0,0,0,0,0c-0.3,0.2-0.7,0.5-1,0.7
							c-0.1,0-0.1,0.1,0,0.1c0,0,0,0,0,0.1c0,0,0,0-0.1,0c0,0,0,0,0-0.1c-0.1-0.1-0.1-0.1-0.2-0.2c0,0,0,0,0,0
							c0.1-0.1,0.1-0.1,0.2-0.2c-0.2,0-0.4,0-0.5-0.2C6,55.9,6,55.8,6,55.7c0-0.1,0.1-0.2,0.2-0.3c0.2-0.2,0.4-0.3,0.6-0.5
							c0.1,0,0.1-0.1,0-0.2c0,0,0,0,0,0c0,0,0,0,0.1,0c0,0,0,0,0,0c0.1,0.1,0.1,0.1,0.2,0.1c0,0,0,0,0,0c-0.3,0.2-0.6,0.4-0.8,0.6
							C6.2,55.6,6.1,55.7,6.1,55.7z"/>
						<path d="M8.1,56.7C8.1,56.7,8.1,56.7,8.1,56.7c0.1-0.1,0.1-0.1,0.1-0.2c0-0.1,0-0.1-0.1-0.1c-0.1-0.1-0.2-0.1-0.3-0.1
							c-0.2,0-0.4,0.1-0.5,0.2c-0.2,0.1-0.2,0.3-0.2,0.4c0,0.1,0,0.2,0.1,0.2c0.1,0.1,0.2,0.2,0.3,0.2c0.1,0,0.2,0,0.3-0.1
							c0,0,0,0,0,0.1c-0.1,0-0.2,0.1-0.4,0.1c-0.1,0-0.3-0.1-0.4-0.2C7.1,57.1,7,57,7,56.8c0-0.2,0.1-0.3,0.2-0.5
							c0.2-0.2,0.4-0.2,0.6-0.2c0.2,0,0.3,0.1,0.4,0.2c0.1,0.1,0.2,0.2,0.2,0.3c0,0.1,0,0.2-0.1,0.2c-0.1,0.1-0.1,0.1-0.2,0
							C8.1,56.8,8.1,56.8,8.1,56.7z"/>
						<path d="M8.7,58.2C8.8,58,9,57.8,9.2,57.6c0.1-0.1,0.2-0.2,0.1-0.2c0-0.1,0-0.1-0.1-0.2c-0.1-0.1-0.3-0.1-0.6-0.1
							c-0.2,0.2-0.4,0.4-0.5,0.6c0,0,0,0.1,0,0.1c0,0,0,0,0,0c0,0,0,0-0.1,0.1c-0.1-0.1-0.3-0.2-0.4-0.3c0,0,0,0,0.1-0.1
							c0,0,0,0,0,0c0.1,0,0.1,0,0.2,0c0.4-0.4,0.8-0.8,1.2-1.3c0,0,0-0.1,0-0.1c0,0,0,0-0.1,0c0,0,0,0,0.1-0.1c0,0,0.1,0.1,0.1,0.1
							c0.1,0,0.1,0.1,0.2,0.1c0,0,0,0,0,0C9.3,56.5,9,56.8,8.8,57c0.2,0,0.4,0,0.6,0.1c0.1,0.1,0.1,0.2,0.2,0.3c0,0.1,0,0.2-0.2,0.3
							c-0.2,0.2-0.4,0.4-0.5,0.6c0,0,0,0.1,0,0.1c0,0,0,0,0,0c0,0,0,0-0.1,0.1c-0.1-0.1-0.3-0.2-0.4-0.3c0,0,0,0,0.1-0.1
							c0,0,0,0,0,0C8.6,58.2,8.6,58.2,8.7,58.2z"/>
						<path d="M10.1,58c0-0.1,0-0.1,0-0.2c-0.1,0-0.1-0.1-0.2-0.1c0,0,0,0,0-0.1c0,0,0.1,0,0.1,0.1c0.1,0.1,0.2,0.1,0.4,0.2
							c0,0,0,0,0,0c-0.3,0.3-0.5,0.7-0.8,1c0,0.1,0,0.1,0,0.1c0.1,0,0.1,0.1,0.2,0.1c0,0,0,0,0,0.1c-0.3-0.2-0.5-0.3-0.8-0.5
							c0,0,0,0,0-0.1c0.1,0,0.1,0.1,0.2,0.1c0.1,0,0.1,0,0.2,0C9.7,58.5,9.9,58.2,10.1,58z M10.8,57.5c0,0-0.1,0.1-0.1,0.1
							c0,0-0.1,0-0.1,0c0,0-0.1-0.1-0.1-0.1c0,0,0-0.1,0-0.1c0,0,0.1,0,0.1-0.1c0,0,0.1,0,0.1,0c0,0,0.1,0.1,0.1,0.1
							C10.8,57.4,10.8,57.4,10.8,57.5z"/>
						<path d="M11.9,60.6c0,0.1,0,0.1,0,0.1c0,0,0,0,0,0c0,0,0,0,0,0.1c-0.2-0.1-0.3-0.2-0.5-0.3c0,0,0,0,0-0.1c0,0,0,0,0.1,0
							c0.1,0,0.1,0,0.2,0c0.3-0.4,0.6-0.9,0.9-1.3c0,0,0,0,0,0c-0.5,0.4-0.9,0.8-1.4,1.2c0,0,0,0-0.1,0c0.2-0.5,0.5-1.1,0.7-1.6
							c0,0,0,0,0,0c-0.3,0.4-0.6,0.8-0.9,1.3c0,0.1,0,0.1,0,0.1c0,0,0,0,0,0c0,0,0,0,0,0.1c-0.1-0.1-0.2-0.1-0.3-0.2c0,0,0,0,0-0.1
							c0,0,0,0,0,0c0.1,0,0.1,0,0.2,0c0.3-0.5,0.7-0.9,1-1.4c0-0.1,0-0.1,0-0.1c0,0,0,0,0,0c0,0,0,0,0-0.1c0.1,0.1,0.2,0.1,0.3,0.2
							c-0.2,0.5-0.4,1-0.6,1.5c0,0,0,0,0,0c0.4-0.4,0.9-0.7,1.3-1.1c0.1,0.1,0.2,0.1,0.3,0.2c0,0,0,0,0,0.1c0,0,0,0,0,0
							c-0.1,0-0.1,0-0.2,0C12.6,59.7,12.3,60.2,11.9,60.6z"/>
						<path d="M12.7,60.5c-0.1,0.2-0.2,0.4-0.1,0.5c0,0.1,0.1,0.2,0.2,0.2c0.1,0.1,0.2,0.1,0.3,0.1c0.1,0,0.2-0.1,0.3-0.1
							c0,0,0,0,0,0.1c-0.1,0.1-0.2,0.1-0.3,0.1c-0.1,0-0.3,0-0.4-0.1c-0.2-0.1-0.3-0.2-0.3-0.3c-0.1-0.2,0-0.3,0.1-0.6
							c0.1-0.2,0.3-0.3,0.4-0.3c0.2,0,0.3,0,0.4,0c0.1,0.1,0.2,0.2,0.3,0.3c0.1,0.1,0,0.3-0.1,0.5C13.3,60.8,13,60.7,12.7,60.5z
							 M13.4,60.8c0.1-0.2,0.1-0.3,0.1-0.5c0-0.1-0.1-0.1-0.2-0.2c-0.1,0-0.2,0-0.3,0c-0.2,0-0.3,0.1-0.4,0.3
							C13,60.6,13.2,60.7,13.4,60.8z"/>
						<path d="M14,61.9c-0.1-0.1-0.2-0.1-0.3-0.3c-0.1-0.2-0.1-0.3,0-0.5c0.1-0.2,0.3-0.4,0.4-0.4c0.2-0.1,0.3-0.1,0.4,0
							c0.1,0.1,0.2,0.2,0.3,0.3c0.1-0.2,0.2-0.4,0.3-0.6c0-0.1,0-0.1,0-0.2c0,0-0.1,0-0.1,0c0,0,0,0,0-0.1c0,0,0.1,0,0.1,0
							c0.1,0,0.2,0,0.3,0c-0.3,0.6-0.6,1.1-0.8,1.7c0,0.1,0,0.1,0,0.1c0,0,0.1,0,0.1,0c0,0,0,0,0,0.1c0,0,0,0-0.1,0
							c-0.1,0-0.2,0-0.3,0c0,0,0,0,0,0c0-0.1,0.1-0.1,0.1-0.2C14.3,61.9,14.2,61.9,14,61.9z M14.8,61.1c0-0.2-0.1-0.3-0.2-0.4
							c-0.1,0-0.2,0-0.2,0c-0.2,0-0.3,0.2-0.4,0.4c-0.1,0.2-0.1,0.4-0.1,0.5c0,0.1,0.1,0.1,0.2,0.1c0.2,0.1,0.4,0,0.5-0.1
							C14.7,61.5,14.7,61.3,14.8,61.1z"/>
						<path d="M15.8,61.4c0-0.1,0-0.1-0.1-0.1c-0.1,0-0.2-0.1-0.2-0.1c0,0,0,0,0-0.1c0,0,0.1,0,0.1,0c0.1,0.1,0.3,0.1,0.4,0.1
							c0,0,0,0,0,0c-0.2,0.4-0.3,0.8-0.5,1.2c0,0.1,0,0.1,0.1,0.1c0.1,0,0.2,0.1,0.2,0.1c0,0,0,0,0,0.1c-0.3-0.1-0.6-0.2-0.9-0.3
							c0,0,0,0,0-0.1c0.1,0,0.2,0.1,0.2,0.1c0.1,0,0.1,0,0.1,0C15.6,62,15.7,61.7,15.8,61.4z M16.4,60.8
							C16.4,60.8,16.3,60.8,16.4,60.8c-0.1,0.1-0.2,0.1-0.2,0.1c0,0-0.1,0-0.1-0.1c0,0,0-0.1,0-0.1c0,0,0-0.1,0.1-0.1
							c0,0,0.1,0,0.1,0c0,0,0.1,0,0.1,0.1C16.4,60.7,16.4,60.7,16.4,60.8z"/>
						<path d="M17.4,62.2C17.4,62.3,17.4,62.2,17.4,62.2c0.1-0.1,0-0.2,0-0.2c0,0-0.1-0.1-0.1-0.1c-0.1,0-0.2,0-0.3,0
							c-0.2,0.1-0.3,0.2-0.3,0.5c-0.1,0.2-0.1,0.4,0,0.5c0,0.1,0.1,0.1,0.2,0.2c0.1,0,0.3,0,0.3,0c0.1,0,0.2-0.1,0.3-0.2
							c0,0,0,0,0.1,0c-0.1,0.1-0.2,0.2-0.3,0.2c-0.1,0.1-0.3,0.1-0.4,0c-0.2,0-0.3-0.1-0.4-0.3c-0.1-0.1-0.1-0.3-0.1-0.5
							c0.1-0.2,0.2-0.4,0.4-0.5c0.1-0.1,0.3-0.1,0.5,0c0.1,0,0.2,0.1,0.3,0.2c0,0.1,0.1,0.1,0,0.2c0,0.1-0.1,0.1-0.2,0.1
							C17.4,62.4,17.4,62.3,17.4,62.2z"/>
						<path d="M18.1,63.5c-0.2,0-0.3-0.1-0.3-0.2c-0.1-0.1-0.1-0.2-0.1-0.2c0-0.1,0.1-0.1,0.2-0.2c0.2-0.1,0.4-0.1,0.9-0.1
							c0-0.1,0-0.1,0-0.2c0-0.1,0-0.1,0-0.2c0,0-0.1-0.1-0.2-0.1c-0.1,0-0.2,0-0.3,0c-0.1,0-0.1,0.1-0.1,0.1c0,0,0,0.1,0,0.1
							c0,0-0.1,0-0.1,0c-0.1,0-0.1-0.1-0.1-0.1c0-0.1,0-0.1,0.1-0.1c0.1-0.1,0.3-0.1,0.5,0c0.2,0,0.3,0.1,0.4,0.2
							c0,0.1,0.1,0.1,0,0.2c-0.1,0.3-0.1,0.6-0.2,0.9c0,0,0,0,0,0.1c0,0,0.1,0,0.1-0.1c0,0,0,0,0.1,0c-0.1,0.2-0.2,0.2-0.3,0.2
							c-0.1,0-0.1-0.1-0.1-0.2C18.4,63.5,18.3,63.5,18.1,63.5z M18.1,62.9C18,63,18,63,17.9,63.1c0,0.1,0,0.1,0,0.2
							c0,0.1,0.1,0.1,0.2,0.1c0.1,0,0.3,0,0.5-0.1c0-0.2,0.1-0.4,0.1-0.5C18.5,62.8,18.2,62.8,18.1,62.9z"/>
						<path d="M19.6,61.7c0.2,0,0.3,0,0.5,0c0,0,0,0,0,0c-0.1,0.7-0.2,1.3-0.2,2c0,0.1,0,0.1,0.1,0.1c0.1,0,0.2,0,0.3,0
							c0,0,0,0,0,0.1c-0.4,0-0.7-0.1-1.1-0.1c0,0,0,0,0-0.1c0.1,0,0.2,0,0.3,0c0.1,0,0.1,0,0.1-0.1c0.1-0.6,0.1-1.1,0.2-1.7
							c0-0.1,0-0.1-0.1-0.1c-0.1,0-0.2,0-0.3,0c0,0,0,0,0-0.1C19.5,61.6,19.5,61.6,19.6,61.7z"/>
						<path d="M23.1,62.2c0.1,0.1,0.1,0.2,0.1,0.3c0,0.2,0,0.3-0.1,0.4c-0.1,0.1-0.2,0.1-0.3,0.2c0.1,0.3,0.3,0.6,0.4,0.9
							c0,0.1,0.1,0.1,0.1,0.1c0,0,0.1,0,0.1,0c0,0,0,0,0,0.1c-0.1,0-0.2,0-0.4,0c-0.1-0.3-0.3-0.7-0.4-1c-0.1,0-0.2,0-0.3,0
							c0,0.3,0,0.6,0,0.9c0,0.1,0,0.1,0.1,0.1c0,0,0.1,0,0.1,0c0,0,0,0,0,0.1c-0.2,0-0.4,0-0.6,0c0,0,0,0,0-0.1c0,0,0.1,0,0.1,0
							c0.1,0,0.1,0,0.1-0.1c0-0.6,0-1.1,0-1.7c0-0.1,0-0.1-0.1-0.1c0,0-0.1,0-0.1,0c0,0,0,0,0-0.1c0.2,0,0.5,0,0.7,0
							C22.8,62.1,23,62.1,23.1,62.2z M22.3,63c0.1,0,0.2,0,0.3,0c0.1,0,0.2,0,0.3-0.1c0.1-0.1,0.1-0.2,0.1-0.3c0-0.1,0-0.2-0.1-0.3
							c-0.1-0.1-0.2-0.1-0.4-0.1c0,0-0.1,0-0.1,0c-0.1,0-0.1,0-0.1,0.1C22.3,62.5,22.3,62.8,22.3,63z"/>
						<path d="M23.6,63.4c0,0.2,0.1,0.4,0.2,0.5C23.9,63.9,24,64,24,64c0.1,0,0.3,0,0.3-0.1c0.1-0.1,0.1-0.1,0.2-0.2c0,0,0,0,0.1,0
							c0,0.1-0.1,0.2-0.2,0.3C24.3,64,24.2,64,24,64c-0.2,0-0.3,0-0.4-0.1c-0.1-0.1-0.2-0.3-0.2-0.5c0-0.2,0.1-0.4,0.2-0.5
							c0.1-0.1,0.3-0.2,0.4-0.2c0.2,0,0.3,0,0.4,0.1c0.1,0.1,0.2,0.3,0.2,0.5C24.3,63.4,23.9,63.4,23.6,63.4z M24.4,63.3
							c0-0.2,0-0.4-0.2-0.4c-0.1-0.1-0.1-0.1-0.2-0.1c-0.1,0-0.2,0-0.3,0.1c-0.1,0.1-0.2,0.2-0.2,0.4C23.9,63.3,24.1,63.3,24.4,63.3
							z"/>
						<path d="M24.9,63c0-0.1,0-0.2,0.1-0.2c0.1-0.1,0.2-0.2,0.4-0.2c0.1,0,0.2,0,0.2,0c0.1,0,0.1,0,0.1,0c0,0,0.1,0,0.1-0.1
							c0,0.1,0.1,0.3,0.1,0.4c0,0,0,0-0.1,0c-0.1-0.2-0.3-0.3-0.5-0.3c-0.1,0-0.2,0.1-0.3,0.1c0,0.1-0.1,0.1,0,0.2
							c0,0.1,0.1,0.1,0.2,0.2c0.1,0,0.2,0.1,0.6,0.1c0.1,0,0.2,0.1,0.2,0.2c0,0.1,0,0.2-0.1,0.2c-0.1,0.1-0.2,0.2-0.4,0.2
							c-0.1,0-0.2,0-0.3,0c0,0-0.1,0-0.1,0c-0.1,0-0.1,0-0.2,0.1c0-0.2-0.1-0.3-0.1-0.5c0,0,0,0,0.1,0c0.1,0.2,0.3,0.4,0.6,0.3
							c0.2,0,0.3-0.1,0.3-0.3c0-0.1-0.1-0.1-0.1-0.1c-0.2-0.1-0.4-0.1-0.6-0.2C25,63.2,24.9,63.1,24.9,63z"/>
						<path d="M26.4,63.1c0,0.2,0.1,0.4,0.2,0.4c0.1,0.1,0.2,0.1,0.3,0.1c0.1,0,0.2-0.1,0.3-0.1c0.1-0.1,0.1-0.2,0.1-0.2
							c0,0,0,0,0.1,0c0,0.1-0.1,0.2-0.1,0.3c-0.1,0.1-0.2,0.2-0.4,0.2c-0.2,0-0.3,0-0.4-0.1c-0.1-0.1-0.2-0.3-0.3-0.5
							c0-0.2,0-0.4,0.1-0.5c0.1-0.1,0.2-0.2,0.4-0.2c0.2,0,0.3,0,0.4,0.1c0.1,0.1,0.2,0.2,0.3,0.5C27,63,26.7,63,26.4,63.1z
							 M27.2,62.9c0-0.2-0.1-0.3-0.2-0.4c-0.1,0-0.2-0.1-0.3,0c-0.1,0-0.2,0.1-0.2,0.1c-0.1,0.1-0.1,0.3-0.1,0.4
							C26.6,63,26.9,62.9,27.2,62.9z"/>
						<path d="M28.2,63.4c-0.2,0-0.3,0-0.4,0c-0.1,0-0.1-0.1-0.2-0.2c0-0.1,0-0.2,0.1-0.3c0.1-0.1,0.3-0.3,0.7-0.5
							c0-0.1,0-0.1,0-0.2c0-0.1-0.1-0.1-0.1-0.1c-0.1,0-0.1,0-0.3,0c-0.1,0-0.2,0.1-0.3,0.1c-0.1,0.1-0.1,0.1,0,0.2c0,0,0,0.1,0,0.1
							c0,0,0,0.1-0.1,0.1c-0.1,0-0.1,0-0.1-0.1c0-0.1,0-0.1,0-0.2c0.1-0.1,0.2-0.2,0.4-0.2c0.2,0,0.3,0,0.4,0c0.1,0,0.1,0.1,0.1,0.2
							c0.1,0.3,0.1,0.6,0.2,0.9c0,0,0,0,0.1,0c0,0,0-0.1,0-0.2c0,0,0,0,0.1,0c0,0.2,0,0.3-0.1,0.3c-0.1,0-0.1,0-0.2-0.1
							C28.5,63.3,28.4,63.3,28.2,63.4z M28,62.9c-0.1,0.1-0.1,0.2-0.1,0.2c0,0.1,0.1,0.1,0.1,0.1c0.1,0,0.1,0,0.2,0
							c0.1,0,0.3-0.1,0.4-0.3c0-0.2-0.1-0.4-0.1-0.5C28.2,62.6,28,62.8,28,62.9z"/>
						<path d="M29.5,62c0.1-0.3,0.2-0.5,0.4-0.5c0.1,0,0.2,0,0.2,0c0,0,0.1,0,0.1,0.1c0,0.1,0,0.1-0.1,0.1c-0.1,0-0.1,0-0.1-0.1
							c0,0-0.1-0.1-0.1,0c-0.2,0.1-0.3,0.3-0.3,0.6c0.1,0.2,0.1,0.4,0.2,0.5c0,0.1,0.1,0.1,0.1,0.1c0.1,0,0.2-0.1,0.3-0.1
							c0,0,0,0,0,0.1c-0.3,0.1-0.6,0.2-0.9,0.3c0,0,0,0,0-0.1c0.1,0,0.2-0.1,0.3-0.1c0.1,0,0.1-0.1,0.1-0.1
							c-0.1-0.3-0.2-0.6-0.3-0.9c0-0.1-0.1-0.1-0.1-0.1c-0.1,0-0.2,0-0.2,0.1c0,0,0,0,0-0.1c0,0,0.1,0,0.1,0c0.1,0,0.2-0.1,0.4-0.2
							c0,0,0,0,0,0C29.4,61.7,29.5,61.9,29.5,62z"/>
						<path d="M31.3,61.4C31.3,61.4,31.3,61.4,31.3,61.4c0-0.1-0.1-0.2-0.2-0.2c-0.1,0-0.1,0-0.2,0c-0.1,0-0.2,0.1-0.2,0.2
							c-0.1,0.1-0.1,0.3,0,0.6c0.1,0.2,0.2,0.3,0.3,0.4c0.1,0,0.2,0,0.3,0c0.1-0.1,0.2-0.1,0.3-0.2c0-0.1,0.1-0.2,0.1-0.3
							c0,0,0,0,0.1,0c0,0.1,0,0.2-0.1,0.3c-0.1,0.1-0.2,0.2-0.3,0.3c-0.2,0.1-0.3,0.1-0.4,0c-0.2-0.1-0.3-0.2-0.4-0.4
							c-0.1-0.2-0.1-0.4,0-0.6c0.1-0.1,0.2-0.2,0.4-0.3c0.1,0,0.3,0,0.4,0c0.1,0,0.1,0.1,0.2,0.1c0,0.1,0,0.1-0.1,0.2
							C31.4,61.5,31.3,61.5,31.3,61.4z"/>
						<path d="M33,61.5c-0.1-0.2-0.2-0.4-0.3-0.7c-0.1-0.1-0.1-0.2-0.2-0.2c-0.1,0-0.1,0-0.2,0c-0.2,0.1-0.2,0.2-0.3,0.5
							c0.1,0.2,0.2,0.5,0.4,0.7c0,0.1,0.1,0.1,0.1,0c0,0,0,0,0.1,0c0,0,0,0,0,0.1c-0.2,0.1-0.3,0.1-0.5,0.2c0,0,0,0,0-0.1
							c0,0,0,0,0.1,0c0.1,0,0.1-0.1,0.1-0.1c-0.3-0.5-0.5-1-0.8-1.5c0-0.1-0.1-0.1-0.1,0c0,0,0,0-0.1,0c0,0,0,0,0-0.1
							c0,0,0.1,0,0.1-0.1c0.1,0,0.1-0.1,0.1-0.2c0,0,0,0,0,0c0.2,0.3,0.3,0.6,0.5,1c0-0.2,0.1-0.4,0.3-0.5c0.1-0.1,0.2-0.1,0.3,0
							c0.1,0,0.2,0.1,0.2,0.2c0.1,0.2,0.2,0.4,0.3,0.7c0,0.1,0.1,0.1,0.1,0c0,0,0,0,0.1,0c0,0,0,0,0,0.1c-0.2,0.1-0.3,0.1-0.5,0.2
							c0,0,0,0,0-0.1c0,0,0,0,0.1,0C33,61.6,33,61.6,33,61.5z"/>
						<path d="M33.7,59C33.7,58.9,33.7,58.9,33.7,59c0.2-0.2,0.5-0.4,0.8-0.6c0,0,0,0,0,0.1c-0.1,0-0.2,0.1-0.2,0.1
							c-0.1,0-0.1,0.1,0,0.1c0.3,0.5,0.7,1,1,1.4c0,0.1,0.1,0.1,0.2,0c0.1,0,0.2-0.1,0.2-0.1c0,0,0,0,0,0.1
							c-0.3,0.2-0.6,0.3-0.9,0.5c0,0,0,0,0-0.1c0.1-0.1,0.2-0.1,0.2-0.1c0.1,0,0.1-0.1,0-0.1c-0.3-0.5-0.7-1-1-1.4
							c0-0.1-0.1-0.1-0.2,0C33.9,58.9,33.8,58.9,33.7,59z"/>
						<path d="M35.2,58.9C35.2,58.9,35.1,58.9,35.2,58.9c-0.1,0-0.1,0-0.1,0C35.1,58.9,35.1,58.8,35.2,58.9c0-0.1,0-0.2,0.1-0.2
							c0,0,0,0,0,0c0.1,0.1,0.1,0.2,0.2,0.2c0-0.2,0.1-0.4,0.2-0.5c0.2-0.2,0.4-0.1,0.6,0.1c0.2,0.2,0.3,0.4,0.5,0.6
							c0,0.1,0.1,0.1,0.2,0c0,0,0,0,0,0c0,0,0,0,0,0.1c-0.1,0.1-0.3,0.2-0.4,0.3c0,0,0,0,0-0.1c0,0,0,0,0.1,0c0.1,0,0.1-0.1,0-0.1
							c-0.2-0.2-0.3-0.4-0.5-0.6c-0.1-0.2-0.3-0.2-0.4-0.1c-0.1,0.1-0.2,0.2-0.2,0.5c0.2,0.2,0.3,0.4,0.5,0.6c0,0,0.1,0.1,0.2,0
							c0,0,0,0,0,0c0,0,0,0,0,0.1c-0.1,0.1-0.3,0.2-0.4,0.3c0,0,0,0,0-0.1c0,0,0,0,0,0c0.1,0,0.1-0.1,0-0.1
							C35.7,59.4,35.5,59.2,35.2,58.9C35.3,58.9,35.2,58.9,35.2,58.9z"/>
						<path d="M36.7,58.2c-0.1-0.1-0.1-0.1-0.1-0.2c0-0.1,0.1-0.3,0.2-0.4c0.1-0.1,0.1-0.1,0.2-0.1c0,0,0.1,0,0.1-0.1
							c0,0,0.1-0.1,0.1-0.1c0.1,0.1,0.2,0.2,0.3,0.3c0,0,0,0,0,0.1c-0.2-0.1-0.4-0.1-0.6,0c-0.1,0.1-0.1,0.2-0.2,0.3
							c0,0.1,0,0.1,0.1,0.2c0.1,0.1,0.1,0.1,0.2,0c0.1,0,0.2-0.1,0.5-0.2c0.1-0.1,0.3,0,0.3,0.1c0.1,0.1,0.1,0.2,0.1,0.2
							c0,0.1-0.1,0.3-0.2,0.4c-0.1,0.1-0.2,0.1-0.2,0.1c0,0-0.1,0-0.1,0.1c0,0-0.1,0.1-0.1,0.2c-0.1-0.1-0.2-0.2-0.4-0.3
							c0,0,0,0,0-0.1c0.2,0.2,0.4,0.2,0.7,0c0.2-0.1,0.2-0.3,0.1-0.4c-0.1-0.1-0.1-0.1-0.2,0c-0.2,0.1-0.4,0.1-0.6,0.2
							C36.9,58.2,36.8,58.2,36.7,58.2z"/>
						<path d="M38.7,57.4c0.1,0.1,0.2,0.1,0.3,0c0.1-0.1,0.1-0.1,0.1-0.2c0-0.1,0-0.2-0.1-0.3c0,0,0,0,0.1,0
							c0.1,0.1,0.1,0.2,0.1,0.3c0,0.1,0,0.2-0.1,0.3c-0.1,0.1-0.2,0.1-0.2,0.1c-0.1,0-0.2,0-0.3-0.1c-0.2-0.2-0.5-0.4-0.7-0.6
							c-0.1,0.1-0.2,0.2-0.3,0.3c0,0,0,0-0.1,0c0,0,0,0,0,0c0.2-0.2,0.2-0.4,0-0.6c0,0,0,0-0.1,0c0,0,0,0,0.1-0.1
							c0.1,0.1,0.2,0.2,0.4,0.3c0.1-0.1,0.2-0.2,0.4-0.4c0,0,0,0,0.1,0c-0.1,0.1-0.2,0.2-0.4,0.4C38.2,57,38.4,57.2,38.7,57.4z"/>
						<path d="M38.2,55.3c0,0,0.1,0.1,0.1,0.1c0,0,0,0.1,0,0.1c0,0-0.1,0-0.1,0.1c0,0-0.1,0-0.1,0c0,0,0-0.1,0-0.1c0,0,0-0.1,0-0.1
							c0,0,0.1-0.1,0.1-0.1C38.2,55.3,38.2,55.3,38.2,55.3z M38.7,56c-0.1,0-0.1,0-0.2,0c-0.1,0.1-0.1,0.1-0.2,0.2c0,0,0,0-0.1,0
							c0,0,0.1-0.1,0.1-0.1c0.1-0.1,0.2-0.2,0.2-0.3c0,0,0,0,0,0c0.3,0.3,0.7,0.5,1,0.8c0.1,0,0.1,0,0.1,0c0.1-0.1,0.1-0.1,0.2-0.2
							c0,0,0,0,0.1,0c-0.2,0.2-0.4,0.5-0.6,0.7c0,0,0,0-0.1,0c0.1-0.1,0.1-0.1,0.2-0.2c0-0.1,0-0.1,0-0.1C39.2,56.4,39,56.2,38.7,56
							z"/>
						<path d="M40.2,55.7c0.1,0.1,0.2,0.1,0.3-0.1c0.1-0.1,0.1-0.1,0.1-0.2c0-0.1-0.1-0.2-0.1-0.2c0,0,0,0,0.1,0
							c0.1,0.1,0.1,0.2,0.2,0.3c0,0.1,0,0.2-0.1,0.3c-0.1,0.1-0.1,0.1-0.2,0.2c-0.1,0-0.2,0-0.3-0.1c-0.3-0.2-0.5-0.4-0.8-0.6
							c-0.1,0.1-0.2,0.2-0.2,0.3c0,0,0,0-0.1,0c0,0,0,0,0,0c0.2-0.2,0.1-0.4-0.1-0.5c0,0,0,0-0.1,0c0,0,0,0,0.1-0.1
							c0.1,0.1,0.3,0.2,0.4,0.3c0.1-0.1,0.2-0.3,0.3-0.4c0,0,0,0,0.1,0c-0.1,0.1-0.2,0.3-0.3,0.4C39.7,55.3,40,55.5,40.2,55.7z"/>
						<path d="M41.1,54.9c0.1,0,0.1-0.1,0.2-0.1c0.1-0.1,0.1-0.2,0.1-0.3c0-0.1,0-0.1-0.1-0.2c-0.2-0.1-0.4-0.3-0.7-0.4
							c-0.1,0-0.1,0-0.2,0c0,0,0,0,0,0c0,0,0,0-0.1,0c0,0,0,0,0,0c0.1-0.1,0.1-0.2,0.1-0.3c0,0,0,0,0,0c0.3,0.2,0.7,0.5,1,0.7
							c0.1,0,0.1,0,0.1,0c0,0,0,0,0-0.1c0,0,0,0,0.1,0c0,0,0,0,0,0.1c0,0.1-0.1,0.1-0.1,0.2c0,0,0,0,0,0c-0.1,0-0.1-0.1-0.2-0.1
							c0.1,0.2,0.1,0.3-0.1,0.5c-0.1,0.1-0.2,0.1-0.3,0.2c-0.1,0-0.2,0-0.3-0.1c-0.2-0.1-0.4-0.3-0.7-0.4c-0.1,0-0.1,0-0.2,0
							c0,0,0,0,0,0c0,0,0,0-0.1,0c0,0,0,0,0,0c0.1-0.1,0.1-0.2,0.1-0.3c0,0,0,0,0,0c0.3,0.2,0.6,0.4,0.9,0.6
							C40.9,54.9,41,54.9,41.1,54.9z"/>
						<path d="M42,53.4c0.1,0.1,0.2,0,0.3-0.1c0-0.1,0.1-0.2,0-0.2c0-0.1-0.1-0.2-0.2-0.2c0,0,0,0,0.1,0c0.1,0.1,0.2,0.2,0.2,0.2
							c0,0.1,0,0.2,0,0.3c-0.1,0.1-0.1,0.2-0.2,0.2c-0.1,0-0.2,0-0.3,0c-0.3-0.2-0.6-0.3-0.9-0.5c-0.1,0.1-0.1,0.2-0.2,0.3
							c0,0,0,0-0.1,0c0,0,0,0,0-0.1c0.1-0.2,0.1-0.4-0.2-0.5c0,0,0,0-0.1,0c0,0,0,0,0-0.1c0.1,0.1,0.3,0.1,0.4,0.2
							c0.1-0.1,0.2-0.3,0.2-0.4c0,0,0,0,0.1,0c-0.1,0.1-0.2,0.3-0.2,0.4C41.4,53.1,41.7,53.3,42,53.4z"/>
						<path d="M42,52.4c0.2,0.1,0.4,0.1,0.5,0.1c0.1,0,0.2-0.1,0.2-0.2c0.1-0.1,0.1-0.2,0-0.3c0-0.1-0.1-0.2-0.2-0.2c0,0,0,0,0.1,0
							c0.1,0.1,0.1,0.2,0.2,0.3c0,0.1,0,0.2,0,0.4c-0.1,0.2-0.2,0.3-0.3,0.3c-0.2,0.1-0.4,0-0.6-0.1c-0.2-0.1-0.3-0.2-0.4-0.4
							c0-0.1,0-0.3,0-0.4c0.1-0.1,0.2-0.2,0.3-0.3c0.1-0.1,0.3,0,0.6,0.1C42.2,51.9,42.1,52.2,42,52.4z M42.2,51.7
							c-0.2-0.1-0.4-0.1-0.5-0.1c-0.1,0-0.1,0.1-0.2,0.2c0,0.1,0,0.2,0,0.3c0,0.1,0.2,0.2,0.3,0.3C42,52.2,42.1,52,42.2,51.7z"/>
					</g>
				</g>
				<g>
					<path class="st4" d="M23.1,59.9c10,0.1,18.1-7.9,18.2-17.9c0.1-10-7.9-18.1-17.9-18.2c-10-0.1-18.1,7.9-18.2,17.9
						C5.1,51.6,13.1,59.8,23.1,59.9z"/>
					<path d="M23.3,59.9C23.3,59.9,23.3,59.9,23.3,59.9c-0.1,0-0.1,0-0.2,0c-4.8,0-9.4-2-12.7-5.4c-3.4-3.4-5.2-8-5.2-12.8
						c0-4.8,1.9-9.3,5.4-12.7c3.4-3.4,7.9-5.2,12.7-5.2c0.1,0,0.1,0,0.2,0c4.8,0,9.4,2,12.7,5.4c3.4,3.4,5.2,8,5.2,12.8
						c0,4.8-1.9,9.3-5.4,12.7C32.6,58.1,28.1,59.9,23.3,59.9z M23.3,23.8c-4.8,0-9.3,1.9-12.7,5.2c-3.4,3.4-5.3,7.8-5.3,12.6
						c0,4.8,1.8,9.3,5.2,12.8c3.4,3.4,7.9,5.3,12.7,5.4c0.1,0,0.1,0,0.2,0c0,0,0,0,0,0c4.8,0,9.3-1.9,12.7-5.2
						c3.4-3.4,5.3-7.8,5.3-12.6c0-4.8-1.8-9.3-5.2-12.8c-3.4-3.4-7.9-5.3-12.7-5.4C23.4,23.8,23.3,23.8,23.3,23.8z"/>
					<g>
						<defs>
							<path id="SVGID_4_" d="M23.1,59.9c10,0.1,18.1-7.9,18.2-17.9c0.1-10-7.9-18.1-17.9-18.2c-10-0.1-18.1,7.9-18.2,17.9
								C5.1,51.6,13.1,59.8,23.1,59.9z"/>
						</defs>
						<clipPath id="SVGID_5_">
							<use xlink:href="#SVGID_4_"  style="overflow:visible;"/>
						</clipPath>
						<g class="st5">
							<rect x="7" y="31.2" width="32.4" height="0.1"/>
							<rect x="4.5" y="36.1" width="37.5" height="0.1"/>
							<rect x="11.1" y="27.1" width="24.2" height="0.1"/>
							<rect x="15.9" y="24.7" width="14.8" height="0.1"/>
							<rect x="3.7" y="41.7" width="39" height="0.1"/>
							<rect x="4.6" y="47.3" width="37.3" height="0.1"/>
							<rect x="6.9" y="52.1" width="32.6" height="0.1"/>
							<rect x="10.7" y="56.2" width="25.1" height="0.1"/>
							<rect x="15.3" y="58.6" width="15.8" height="0.1"/>
						</g>
						<rect x="23.2" y="23" class="st5" width="0.1" height="37.6"/>
						<path class="st5" d="M23.3,59.9C23.3,59.9,23.3,59.9,23.3,59.9l-0.2,0c-9.4-0.1-17-8.3-16.9-18.3c0-4.8,1.8-9.3,5.1-12.7
							c3.2-3.4,7.5-5.2,12-5.2l0.2,0c9.4,0.1,17,8.3,16.9,18.3c0,4.8-1.8,9.3-5.1,12.7C32.1,58.1,27.8,59.9,23.3,59.9z M23.3,23.9
							c-4.5,0-8.7,1.8-11.9,5.2c-3.2,3.4-5,7.8-5,12.6c-0.1,9.9,7.5,18,16.8,18.1l0.2,0c0,0,0,0,0,0c4.5,0,8.7-1.8,11.9-5.2
							c3.2-3.4,5-7.8,5-12.6c0.1-9.9-7.5-18-16.8-18.1L23.3,23.9z"/>
						<path class="st5" d="M23.3,59.9C23.3,59.9,23.3,59.9,23.3,59.9h-0.1c-8.1-0.1-14.6-8.3-14.5-18.3c0-4.8,1.6-9.3,4.3-12.7
							c2.8-3.4,6.4-5.2,10.3-5.2l0.1,0C31.5,23.8,38,32,37.9,42c0,4.8-1.6,9.3-4.3,12.7C30.8,58.1,27.2,59.9,23.3,59.9z M23.3,23.9
							c-3.8,0-7.5,1.8-10.2,5.2c-2.7,3.4-4.3,7.8-4.3,12.6c-0.1,9.9,6.4,18,14.4,18.1h0.1c0,0,0,0,0,0c3.8,0,7.5-1.8,10.2-5.2
							c2.7-3.4,4.3-7.8,4.3-12.6c0.1-9.9-6.4-18-14.4-18.1L23.3,23.9z"/>
						<path class="st5" d="M23.3,59.9C23.3,59.9,23.3,59.9,23.3,59.9L23.3,59.9c-5.9-0.1-10.6-8.3-10.6-18.3c0-4.8,1.1-9.3,3.1-12.7
							c2-3.4,4.6-5.3,7.5-5.3l0.1,0C29.2,23.8,33.9,32,33.8,42c0,4.8-1.1,9.3-3.1,12.7C28.7,58.1,26.1,59.9,23.3,59.9z M23.3,23.9
							c-5.7,0-10.4,8-10.4,17.8c-0.1,9.9,4.6,18,10.4,18.1h0.1c5.7,0,10.4-8,10.4-17.8C33.8,32.1,29.1,23.9,23.3,23.9L23.3,23.9z"/>
						<path class="st5" d="M23.3,59.9L23.3,59.9L23.3,59.9c-3.1-0.1-5.6-8.3-5.5-18.3c0-4.8,0.6-9.2,1.6-12.6c1-3.5,2.4-5.4,4-5.4
							l0.1,0c3.1,0.1,5.5,8.3,5.5,18.3c0,4.8-0.6,9.3-1.6,12.7C26.1,58,24.8,59.9,23.3,59.9z M23.3,23.9c-3,0-5.4,7.8-5.4,17.8
							c0,9.9,2.4,18,5.4,18.1h0c3,0,5.4-8,5.4-17.8C28.7,32.1,26.3,23.9,23.3,23.9L23.3,23.9z"/>
					</g>
				</g>
				<g>
					<path d="M14.3,46.6"/>
					<polygon points="11.6,49.5 11.6,52.2 11.9,52.2 11.9,50.3 13.7,52.2 14.1,52.2 14.1,49.5 13.7,49.5 13.7,51.4 12,49.5 					"/>
					<path d="M19,50.2c-0.6,0-0.8,0-0.8,0c-0.6,0.1-0.6,0.6-0.6,0.6c0,0.6,0.5,0.7,0.5,0.7c-0.2,0.1-0.3,0.4-0.3,0.4
						c0,0.3,0.3,0.3,0.3,0.3c-0.3,0.1-0.4,0.3-0.4,0.3c-0.2,0.5,0.3,0.7,0.3,0.7c0.5,0.2,0.9,0,0.9,0c0.7-0.2,0.7-0.8,0.7-0.8
						c0-0.3-0.2-0.4-0.2-0.4c-0.1-0.1-0.8-0.1-0.8-0.1c-0.3-0.1-0.3-0.2-0.3-0.2c0-0.1,0.2-0.2,0.2-0.2h0.2c0.7,0,0.8-0.6,0.8-0.6
						c0-0.3-0.2-0.5-0.2-0.5h0.4v0v-0.2H19 M18.3,52.2c0,0,0.4,0,0.5,0c0,0,0.3,0.1,0.2,0.5c0,0,0,0.3-0.5,0.3l-0.1,0
						c0,0-0.4,0-0.4-0.4C18,52.6,17.9,52.3,18.3,52.2 M18.5,51.3c-0.2,0-0.3-0.2-0.3-0.5c0-0.3,0.1-0.5,0.3-0.5
						c0.2,0,0.3,0.2,0.3,0.5C18.8,51.1,18.6,51.3,18.5,51.3z"/>
					<path d="M16.1,52.2h-0.6v-1.9h0.6v0.3c0-0.2,0.2-0.3,0.4-0.3h0.3c0.2,0,0.3,0.1,0.4,0.2c0.1,0.1,0.2,0.2,0.2,0.4v1.4h-0.5v-1.3
						c0-0.2-0.1-0.2-0.2-0.2c-0.1-0.1-0.1-0.1-0.2-0.1c-0.1,0-0.2,0-0.2,0.1c-0.1,0.1-0.1,0.2-0.1,0.2V52.2z"/>
					<path d="M19.8,48h-0.6v-1.9h0.6v0.3c0-0.2,0.2-0.3,0.4-0.3h0.3c0.2,0,0.3,0.1,0.4,0.2c0.1,0.1,0.2,0.2,0.2,0.4V48h-0.5v-1.3
						c0-0.2-0.1-0.2-0.2-0.2c-0.1-0.1-0.1-0.1-0.2-0.1c-0.1,0-0.2,0-0.2,0.1c-0.1,0.1-0.1,0.2-0.1,0.2V48z"/>
					<path d="M22.2,52.1h-0.6v-1.9h0.6v0.3c0-0.2,0.2-0.3,0.4-0.3h0.3c0.2,0,0.3,0.1,0.4,0.2c0.1,0.1,0.2,0.2,0.2,0.4v1.4H23v-1.3
						c0-0.2-0.1-0.2-0.2-0.2c-0.1-0.1-0.1-0.1-0.2-0.1c-0.1,0-0.2,0-0.2,0.1c-0.1,0.1-0.1,0.2-0.1,0.2V52.1z"/>
					<g>
						<rect x="14.7" y="50.2" width="0.5" height="1.9"/>
						<path d="M14.9,49.8c0.2,0,0.3-0.1,0.3-0.3c0-0.2-0.1-0.3-0.3-0.3c-0.2,0-0.3,0.1-0.3,0.3C14.6,49.6,14.8,49.8,14.9,49.8z"/>
					</g>
					<path d="M25,49.5h1.2c0.9,0,1.3,0.6,1.3,1.4c0,0.8-0.4,1.4-1.3,1.4H25V49.5 M25.7,51.9l0.4,0c0.9-0.1,1-0.8,1-1.1
						c0-0.3,0-1-0.9-1.1l-0.4,0V51.9z"/>
					<path d="M31.9,50.5l-0.1,0.3l-0.1,0c0,0-0.1-0.4-0.4-0.4c0,0-0.5,0-0.5,0.8c0,0-0.1,0.8,0.5,0.8c0,0,0.4,0,0.5-0.2l0,0.1
						l-0.1,0.3c0,0-0.8,0.3-1.3-0.2c0,0-0.5-0.4-0.2-1.1c0,0,0.2-0.6,1-0.6C31.2,50.3,31.9,50.3,31.9,50.5z"/>
					<path d="M29,50.2c-0.5,0-1,0.5-1,1c0,0.6,0.4,1,1,1c0.5,0,1-0.5,1-1C30,50.7,29.5,50.2,29,50.2 M29,52.1
						c-0.2,0-0.4-0.4-0.4-0.8c0-0.5,0.2-0.8,0.4-0.8c0.2,0,0.4,0.4,0.4,0.8C29.4,51.7,29.2,52.1,29,52.1z"/>
					<g>
						<rect x="32.1" y="49.1" width="0.5" height="3.1"/>
						<polyline points="32.6,51.7 34,50.3 33.6,50.3 32.6,51.2 						"/>
						<polyline points="33.2,51 33.9,52.3 33.4,52.3 32.8,51.3 						"/>
					</g>
					<path d="M22.5,45.2h1.2c0.9,0,1.3,0.6,1.3,1.4c0,0.8-0.4,1.4-1.3,1.4h-1.2V45.2 M23.2,47.7l0.4,0c0.9-0.1,1-0.8,1-1.1
						c0-0.3,0-1-0.9-1.1l-0.5,0V47.7z"/>
					<path d="M29.1,45.2h1.2c0.9,0,1.3,0.6,1.3,1.4c0,0.8-0.4,1.4-1.3,1.4h-1.2V45.2 M29.7,47.7l0.4,0c0.9-0.1,1-0.8,1-1.1
						c0-0.3,0-1-0.9-1.1l-0.5,0V47.7z"/>
					<path d="M17.3,46.5l0-0.2c0.4-0.3,0.9-0.2,0.9-0.2c0.4,0,0.6,0.2,0.6,0.8v0.7l0,0.1c0,0.3,0.2,0.2,0.2,0.2
						c-0.4,0.3-0.6-0.1-0.6-0.1c-0.2,0.2-0.4,0.3-0.7,0.3c-0.3,0-0.5-0.2-0.5-0.5c0-0.4,0.3-0.5,0.6-0.6c0.2-0.1,0.5-0.1,0.6-0.2
						c0-0.3-0.1-0.4-0.4-0.5C17.6,46.3,17.3,46.5,17.3,46.5 M17.8,47.8c0.2,0,0.5-0.2,0.5-0.5v-0.2c-0.2,0-0.2,0-0.4,0.1
						c-0.2,0-0.4,0.2-0.4,0.4C17.5,47.7,17.6,47.8,17.8,47.8z"/>
					<polygon points="9.3,48 8.6,48 8.6,45.2 9.3,45.2 9.3,46.4 10.5,46.4 10.5,45.2 11.2,45.2 11.2,48 10.5,48 10.5,46.7 9.3,46.7 
											"/>
					<path d="M12.8,46.1h0.6V48h-0.6v-0.3c0,0.2-0.2,0.3-0.4,0.3h-0.3c-0.2,0-0.3-0.1-0.4-0.2c-0.1-0.1-0.2-0.2-0.2-0.4v-1.4h0.5
						v1.3c0,0.2,0.1,0.2,0.2,0.2c0.1,0.1,0.1,0.1,0.2,0.1c0.1,0,0.2,0,0.2-0.1c0.1-0.1,0.1-0.2,0.1-0.2V46.1z"/>
					<path d="M36,46.2l-0.1,0.3l-0.1,0c0,0-0.1-0.4-0.4-0.4c0,0-0.5,0-0.5,0.8c0,0-0.1,0.8,0.5,0.8c0,0,0.4,0,0.5-0.2l0,0.1
						l-0.1,0.3c0,0-0.8,0.3-1.3-0.2c0,0-0.5-0.4-0.2-1.1c0,0,0.2-0.6,1-0.6C35.2,46,35.9,46,36,46.2z"/>
					<g>
						<rect x="13.8" y="46.1" width="0.5" height="2"/>
						<path d="M14.2,46.6c0-0.1,0.3-0.4,0.3-0.4s0.4-0.3,0.9,0l0.1,0.2V48H15v-1.5c0,0-0.2-0.2-0.5-0.1c0,0-0.3,0.2-0.3,0.4"/>
						<path d="M15.4,46.6c0-0.1,0.3-0.4,0.3-0.4s0.4-0.3,0.9,0l0.1,0.2V48h-0.5v-1.5c0,0-0.2-0.2-0.5-0.1c0,0-0.3,0.2-0.3,0.4"/>
					</g>
					<path d="M26,46.4c0,0,0.4-0.6,0.8-0.4v0.5c0,0-0.6-0.3-0.8,0.4"/>
					<polygon points="26.9,46 27.7,47.9 27.2,49.1 27.5,49.1 28.8,46 28.5,46 28,47.3 27.5,46 					"/>
					<polygon points="7.4,35.5 7.4,41.8 8.1,41.8 8.1,37.3 12.2,41.8 13.1,41.8 13.1,35.4 12.3,35.4 12.3,39.9 8.4,35.4 					"/>
					<path d="M22.2,37.3c-1.3-0.1-1.8,0-1.8,0c-1.3,0.3-1.3,1.4-1.3,1.4c0,1.3,1.1,1.5,1.1,1.5c-0.6,0.1-0.8,0.8-0.8,0.8
						c0,0.7,0.7,0.8,0.7,0.8c-0.6,0.2-0.9,0.7-0.9,0.7c-0.6,1.2,0.6,1.7,0.6,1.7c1.1,0.4,2,0.1,2,0.1c1.7-0.5,1.5-1.9,1.5-1.9
						c0-0.7-0.5-1-0.5-1c-0.3-0.2-1.9-0.2-1.9-0.2c-0.7-0.2-0.6-0.5-0.6-0.5c0-0.3,0.4-0.4,0.4-0.4h0.4c1.6,0,1.8-1.4,1.8-1.4
						c0-0.8-0.4-1.1-0.4-1.1h0.9v0v-0.4H22.2 M20.5,42c0,0,0.8-0.1,1.2,0.1c0,0,0.8,0.2,0.5,1.3c0,0-0.1,0.6-1.2,0.6l-0.3,0
						c0,0-0.8-0.1-0.8-1C19.8,42.9,19.7,42.3,20.5,42 M20.9,40c-0.4,0-0.7-0.5-0.7-1.2c0-0.6,0.3-1.2,0.7-1.2c0.4,0,0.7,0.5,0.7,1.2
						C21.6,39.4,21.3,40,20.9,40z"/>
					<path d="M26.6,37.3h1.3v4.7h-1.4v-0.7c-0.1,0.4-0.6,0.7-0.8,0.7h-0.6c-0.4,0-0.7-0.1-1-0.4c-0.3-0.3-0.4-0.6-0.4-0.9v-3.3H25
						v3.2c0.1,0.4,0.2,0.4,0.4,0.6c0.1,0.1,0.3,0.2,0.5,0.2c0.2,0,0.4-0.1,0.5-0.2c0.1-0.1,0.2-0.4,0.2-0.6V37.3z"/>
					<path d="M32.7,37.9l-0.3,0.8l-0.2,0c0,0-0.1-0.9-0.9-0.9c0,0-1.2-0.1-1.2,1.9c0,0-0.1,1.7,1.2,1.9c0,0,0.8,0.1,1.2-0.5l0.1,0.2
						l-0.3,0.6c0,0-1.7,0.6-2.9-0.4c0,0-1-0.9-0.6-2.6c0,0,0.6-1.5,2.2-1.5C31,37.3,32.5,37.4,32.7,37.9z"/>
					<path d="M34.5,41.8h-1.3v-7h1.3v3.3c0-0.2,0.4-0.4,0.5-0.5c0.1-0.1,0.3-0.2,0.5-0.2h0.7c0.4,0,0.6,0.1,0.8,0.4
						c0.2,0.3,0.4,0.5,0.4,0.9v3.1h-1.3v-3.1c0-0.2-0.1-0.3-0.3-0.4c-0.1-0.1-0.3-0.2-0.5-0.2c-0.2,0-0.4,0.1-0.5,0.2
						c-0.1,0.1-0.3,0.3-0.3,0.4V41.8z"/>
					<g>
						<rect x="38.5" y="37.4" width="1.2" height="4.5"/>
						<path d="M39.1,36.4c0.4,0,0.7-0.3,0.7-0.7c0-0.4-0.3-0.7-0.7-0.7c-0.4,0-0.7,0.3-0.7,0.7C38.3,36.1,38.7,36.4,39.1,36.4z"/>
					</g>
					<path d="M16.2,37.1c-1.3,0-2.3,1.1-2.3,2.4c0,1.3,1,2.4,2.3,2.4c1.3,0,2.3-1.1,2.3-2.4C18.5,38.2,17.5,37.1,16.2,37.1
						 M16.2,41.4c-0.5,0-0.9-0.9-0.9-1.9c0-1.1,0.4-1.9,0.9-1.9c0.5,0,0.9,0.9,0.9,1.9C17.2,40.6,16.7,41.4,16.2,41.4z"/>
					<path d="M33,46c-0.5,0-1,0.5-1,1c0,0.6,0.4,1,1,1c0.5,0,1-0.5,1-1C34,46.4,33.5,46,33,46 M33,47.8c-0.2,0-0.4-0.4-0.4-0.8
						c0-0.5,0.2-0.8,0.4-0.8c0.2,0,0.4,0.4,0.4,0.8C33.4,47.5,33.2,47.8,33,47.8z"/>
					<g>
						<rect x="36.2" y="44.9" width="0.5" height="3.1"/>
						<polyline points="36.6,47.4 38,46 37.6,46 36.6,46.9 						"/>
						<polyline points="37.3,46.7 38,48 37.4,48 36.8,47 						"/>
					</g>
					<path d="M21.5,51.2c0,0,0.1-1.1-0.9-1.1c0,0-0.9-0.1-1,1c0,0,0,0.8,0.7,1c0,0,0.8,0.2,1.1-0.2l0.1-0.3c0,0-0.3,0.2-0.7,0.2
						c0,0-0.6,0-0.5-0.8H21.5 M20.6,50.4c0.5,0,0.4,0.7,0.4,0.7l-0.8,0C20.1,50.3,20.6,50.4,20.6,50.4z"/>
					<rect x="25.5" y="46.1" width="0.5" height="2"/>
				</g>
			</g>
		</g>
	</g>
</g>
</svg>
